<?xml version="1.0" encoding="utf-8"?>
<!-- Generator: Adobe Illustrator 16.0.0, SVG Export Plug-In . SVG Version: 6.00 Build 0)  -->
<!DOCTYPE svg PUBLIC "-//W3C//DTD SVG 1.1//EN" "http://www.w3.org/Graphics/SVG/1.1/DTD/svg11.dtd">
<svg version="1.1" id="Layer_1" xmlns="http://www.w3.org/2000/svg" xmlns:xlink="http://www.w3.org/1999/xlink" x="0px" y="0px"
	 width="560px" height="450px" viewBox="0 0 560 450" enable-background="new 0 0 560 450" xml:space="preserve">
<g id="layer1" transform="translate(0,-62.362205)">
	<path id="path6986" fill="#010101" d="M119.438,62.175c-4.821,0-10.458,1.366-11.319,2.742c-0.669,1.071-3.827,1.071-4.496,0
		c-0.86-1.376-6.498-2.742-11.321-2.742v4.758c2.604,0,9.123,2.203,10.428,3.523c1.565,1.584,4.717,1.584,6.283,0
		c1.304-1.321,7.823-3.523,10.426-3.523V62.175L119.438,62.175 M146.576,62.175c-4.823,0-10.46,1.366-11.32,2.742
		c-0.67,1.071-3.826,1.071-4.496,0c-0.86-1.376-6.499-2.742-11.322-2.742v4.758c2.604,0,9.124,2.203,10.429,3.523
		c1.565,1.584,4.717,1.584,6.282,0c1.304-1.321,7.823-3.523,10.427-3.523V62.175L146.576,62.175 M173.713,62.175
		c-4.823,0-10.459,1.366-11.32,2.742c-0.67,1.071-3.827,1.071-4.497,0c-0.86-1.376-6.498-2.742-11.32-2.742v4.758
		c2.604,0,9.123,2.203,10.426,3.523c1.567,1.584,4.719,1.584,6.283,0c1.305-1.321,7.823-3.523,10.427-3.523V62.175L173.713,62.175
		 M200.85,62.175c-4.822,0-10.459,1.366-11.32,2.742c-0.669,1.071-3.827,1.071-4.497,0c-0.86-1.376-6.499-2.742-11.32-2.742v4.758
		c2.603,0,9.122,2.203,10.427,3.523c1.565,1.584,4.717,1.584,6.283,0c1.304-1.321,7.823-3.523,10.427-3.523V62.175L200.85,62.175
		 M227.986,62.175c-4.822,0-10.46,1.366-11.32,2.742c-0.669,1.071-3.826,1.071-4.496,0c-0.861-1.376-6.5-2.742-11.321-2.742v4.758
		c2.603,0,9.123,2.203,10.428,3.523c1.564,1.584,4.716,1.584,6.282,0c1.304-1.321,7.823-3.523,10.427-3.523V62.175L227.986,62.175
		 M255.123,62.175c-4.823,0-10.459,1.366-11.32,2.742c-0.67,1.071-3.827,1.071-4.497,0c-0.859-1.376-6.498-2.742-11.32-2.742v4.758
		c2.604,0,9.124,2.203,10.427,3.523c1.566,1.584,4.718,1.584,6.282,0c1.305-1.321,7.824-3.523,10.427-3.523V62.175L255.123,62.175
		 M282.259,62.175c-4.821,0-10.458,1.366-11.319,2.742c-0.669,1.071-3.827,1.071-4.497,0c-0.859-1.376-6.498-2.742-11.32-2.742
		v4.758c2.604,0,9.123,2.203,10.427,3.523c1.565,1.584,4.718,1.584,6.283,0c1.305-1.321,7.823-3.523,10.426-3.523V62.175
		L282.259,62.175 M309.396,62.175c-4.822,0-10.458,1.366-11.32,2.742c-0.669,1.071-3.826,1.071-4.495,0
		c-0.861-1.376-6.5-2.742-11.322-2.742v4.758c2.604,0,9.125,2.203,10.429,3.523c1.564,1.584,4.718,1.584,6.283,0
		c1.303-1.321,7.821-3.523,10.426-3.523V62.175L309.396,62.175 M336.533,62.175c-4.823,0-10.459,1.366-11.32,2.742
		c-0.67,1.071-3.825,1.071-4.495,0c-0.86-1.376-6.499-2.742-11.321-2.742v4.758c2.604,0,9.123,2.203,10.428,3.523
		c1.565,1.584,4.717,1.584,6.282,0c1.305-1.321,7.823-3.523,10.427-3.523V62.175L336.533,62.175 M363.67,62.175
		c-4.821,0-10.458,1.366-11.319,2.742c-0.669,1.071-3.828,1.071-4.497,0c-0.86-1.376-6.498-2.742-11.32-2.742v4.758
		c2.604,0,9.123,2.203,10.428,3.523c1.564,1.584,4.719,1.584,6.283,0c1.305-1.321,7.822-3.523,10.426-3.523V62.175L363.67,62.175
		 M390.808,62.175c-4.823,0-10.46,1.366-11.321,2.742c-0.669,1.071-3.826,1.071-4.494,0c-0.861-1.376-6.499-2.742-11.322-2.742
		v4.758c2.604,0,9.123,2.203,10.429,3.523c1.564,1.584,4.717,1.584,6.282,0c1.304-1.321,7.823-3.523,10.427-3.523V62.175
		L390.808,62.175 M417.944,62.175c-4.824,0-10.46,1.366-11.319,2.742c-0.67,1.071-3.828,1.071-4.498,0
		c-0.859-1.376-6.498-2.742-11.319-2.742v4.758c2.603,0,9.123,2.203,10.426,3.523c1.566,1.584,4.719,1.584,6.285,0
		c1.304-1.321,7.821-3.523,10.426-3.523V62.175L417.944,62.175 M445.079,62.175c-4.821,0-10.458,1.366-11.318,2.742
		c-0.669,1.071-3.826,1.071-4.496,0c-0.86-1.376-6.498-2.742-11.32-2.742v4.758c2.603,0,9.122,2.203,10.427,3.523
		c1.565,1.584,4.719,1.584,6.282,0c1.306-1.321,7.823-3.523,10.426-3.523V62.175L445.079,62.175 M473.459,62.278
		c-4.813-0.189-11.7,1.263-12.563,2.639c-0.668,1.071-3.826,1.071-4.495,0c-0.861-1.376-6.499-2.742-11.322-2.742v4.758
		c2.604,0,9.126,2.203,10.429,3.523c1.565,1.584,4.719,1.584,6.283,0c1.305-1.321,8.571-3.531,11.17-3.429L473.459,62.278
		L473.459,62.278 M506.462,67.399c-4.383-1.229-13.106-1.591-14.555-0.414c-1.127,0.916-4.833,0.341-5.088-0.795
		c-0.325-1.46-8.549-3.724-13.36-3.912l-0.498,4.749c2.598,0.102,9.839,2.956,10.708,4.404c1.044,1.738,4.372,2.286,6.593,1.028
		c1.85-1.048,10.59-1.399,12.957-0.736L506.462,67.399L506.462,67.399 M534.379,79.765c-3.297-2.153-11.146-4.417-13.222-3.669
		c-1.616,0.581-5.203-1.016-4.809-2.137c0.507-1.44-5.505-5.331-9.887-6.56l-3.243,4.324c2.365,0.664,7.525,5.037,7.44,6.579
		c-0.104,1.851,2.704,3.103,5.544,2.462c2.367-0.534,10.72,1.091,12.499,2.253L534.379,79.765L534.379,79.765 M552.938,97.485
		c-1.737-2.752-8.174-7.06-10.537-6.772c-1.838,0.223-3.891-1.725-2.839-2.673c1.353-1.219-1.887-6.122-5.183-8.274l-5.677,3.252
		c1.779,1.163,3.948,6.333,2.924,7.743c-1.231,1.692,0.679,3.465,3.704,3.521c2.522,0.047,9.413,3.432,10.35,4.917L552.938,97.485
		L552.938,97.485 M559.727,117.635c-0.119-2.949-3.462-7.879-5.827-8.162c-1.84-0.219-2.612-2.498-1.053-3.133
		c2.006-0.816,1.827-6.104,0.091-8.854l-7.258,1.713c0.938,1.485-0.203,6.534-1.934,7.656c-2.077,1.347-1.435,3.439,1.388,4.11
		c2.352,0.558,6.753,5.195,6.815,6.788L559.727,117.635L559.727,117.635 M559.783,134.527c0-2.95-2.233-6.397-4.484-6.924
		c-1.75-0.41-1.75-2.341,0-2.75c2.251-0.527,4.546-4.27,4.428-7.218l-7.777,0.117c0.065,1.592-3.547,5.756-5.705,6.554
		c-2.592,0.958-2.592,2.886,0,3.843c2.158,0.798,5.759,4.785,5.759,6.377H559.783L559.783,134.527 M559.783,151.126
		c0-2.95-2.233-6.397-4.483-6.924c-1.751-0.41-1.751-2.341,0-2.75c2.25-0.526,4.483-3.976,4.483-6.925h-7.78
		c0,1.592-3.601,5.581-5.759,6.379c-2.592,0.957-2.592,2.885,0,3.843c2.158,0.798,5.759,4.785,5.759,6.377H559.783L559.783,151.126
		 M559.783,167.725c0-2.95-2.233-6.397-4.483-6.924c-1.751-0.41-1.751-2.34,0-2.75c2.25-0.526,4.483-3.976,4.483-6.925h-7.78
		c0,1.593-3.601,5.581-5.759,6.379c-2.592,0.958-2.592,2.885,0,3.843c2.158,0.798,5.759,4.785,5.759,6.377H559.783L559.783,167.725
		 M559.783,184.324c0-2.95-2.233-6.397-4.483-6.923c-1.751-0.41-1.751-2.341,0-2.75c2.25-0.526,4.483-3.976,4.483-6.925h-7.78
		c0,1.592-3.601,5.581-5.759,6.378c-2.592,0.958-2.592,2.886,0,3.843c2.158,0.798,5.759,4.786,5.759,6.377H559.783L559.783,184.324
		 M559.783,200.924c0-2.95-2.233-6.397-4.483-6.924c-1.751-0.41-1.751-2.341,0-2.75c2.25-0.526,4.483-3.975,4.483-6.925h-7.78
		c0,1.593-3.601,5.581-5.759,6.378c-2.592,0.958-2.592,2.886,0,3.843c2.158,0.799,5.759,4.786,5.759,6.378H559.783L559.783,200.924
		 M559.783,217.523c0-2.95-2.233-6.397-4.483-6.924c-1.751-0.41-1.751-2.341,0-2.75c2.25-0.526,4.483-3.976,4.483-6.925h-7.78
		c0,1.592-3.601,5.581-5.759,6.377c-2.592,0.958-2.592,2.886,0,3.843c2.158,0.799,5.759,4.786,5.759,6.378H559.783L559.783,217.523
		 M559.783,234.122c0-2.95-2.233-6.398-4.483-6.924c-1.751-0.41-1.751-2.341,0-2.75c2.25-0.526,4.483-3.975,4.483-6.925h-7.78
		c0,1.593-3.601,5.581-5.759,6.378c-2.592,0.958-2.592,2.886,0,3.843c2.158,0.798,5.759,4.786,5.759,6.378H559.783L559.783,234.122
		 M559.783,250.722c0-2.95-2.233-6.397-4.483-6.924c-1.751-0.41-1.751-2.341,0-2.75c2.25-0.525,4.483-3.975,4.483-6.924h-7.78
		c0,1.592-3.601,5.581-5.759,6.377c-2.592,0.959-2.592,2.887,0,3.844c2.158,0.798,5.759,4.785,5.759,6.378H559.783L559.783,250.722
		 M559.783,267.32c0-2.95-2.233-6.397-4.483-6.923c-1.751-0.411-1.751-2.34,0-2.751c2.25-0.526,4.483-3.975,4.483-6.924h-7.78
		c0,1.592-3.601,5.581-5.759,6.377c-2.592,0.958-2.592,2.886,0,3.844c2.158,0.798,5.759,4.784,5.759,6.377H559.783L559.783,267.32
		 M559.783,283.92c0-2.95-2.233-6.397-4.483-6.925c-1.751-0.41-1.751-2.34,0-2.75c2.25-0.525,4.483-3.975,4.483-6.925h-7.78
		c0,1.593-3.601,5.582-5.759,6.378c-2.592,0.958-2.592,2.886,0,3.843c2.158,0.798,5.759,4.785,5.759,6.378H559.783L559.783,283.92
		 M559.783,300.519c0-2.949-2.233-6.397-4.484-6.924c-1.75-0.411-1.75-2.341,0-2.751c2.251-0.525,4.484-3.975,4.484-6.924h-7.78
		c0,1.592-3.601,5.582-5.759,6.378c-2.592,0.957-2.592,2.886,0,3.844c2.158,0.796,5.759,4.783,5.759,6.377H559.783L559.783,300.519
		 M559.783,317.119c0-2.949-2.233-6.397-4.484-6.926c-1.75-0.408-1.75-2.339,0-2.749c2.251-0.527,4.484-3.975,4.484-6.925h-7.78
		c0,1.592-3.601,5.581-5.759,6.378c-2.592,0.957-2.592,2.886,0,3.844c2.158,0.797,5.759,4.784,5.759,6.378H559.783L559.783,317.119
		 M559.783,333.718c0-2.95-2.233-6.397-4.484-6.924c-1.75-0.409-1.75-2.341,0-2.751c2.251-0.526,4.484-3.975,4.484-6.924h-7.78
		c0,1.592-3.601,5.58-5.759,6.378c-2.592,0.958-2.592,2.886,0,3.843c2.158,0.798,5.759,4.785,5.759,6.378H559.783L559.783,333.718
		 M559.783,350.317c0-2.949-2.233-6.397-4.484-6.925c-1.75-0.409-1.75-2.341,0-2.75c2.251-0.526,4.484-3.974,4.484-6.925h-7.78
		c0,1.593-3.601,5.581-5.759,6.379c-2.592,0.957-2.592,2.886,0,3.844c2.158,0.797,5.759,4.784,5.759,6.377H559.783L559.783,350.317
		 M559.783,366.917c0-2.95-2.233-6.397-4.484-6.925c-1.75-0.409-1.75-2.341,0-2.75c2.251-0.528,4.484-3.975,4.484-6.925h-7.78
		c0,1.592-3.601,5.581-5.759,6.378c-2.592,0.957-2.592,2.887,0,3.844c2.158,0.798,5.759,4.784,5.759,6.378H559.783L559.783,366.917
		 M559.783,383.517c0-2.951-2.233-6.398-4.484-6.926c-1.75-0.409-1.75-2.34,0-2.75c2.251-0.527,4.484-3.976,4.484-6.924h-7.78
		c0,1.592-3.601,5.58-5.759,6.377c-2.592,0.958-2.592,2.888,0,3.845c2.158,0.797,5.759,4.783,5.759,6.378H559.783L559.783,383.517
		 M559.783,400.114c0-2.949-2.233-6.397-4.484-6.924c-1.75-0.408-1.75-2.341,0-2.75c2.251-0.527,4.484-3.975,4.484-6.924h-7.78
		c0,1.592-3.601,5.58-5.759,6.377c-2.592,0.958-2.592,2.887,0,3.844c2.158,0.798,5.759,4.785,5.759,6.377H559.783L559.783,400.114
		 M559.783,416.714c0-2.949-2.233-6.398-4.484-6.923c-1.75-0.411-1.75-2.342,0-2.751c2.251-0.526,4.484-3.976,4.484-6.926h-7.78
		c0,1.593-3.601,5.582-5.759,6.379c-2.592,0.957-2.592,2.886,0,3.844c2.158,0.798,5.759,4.784,5.759,6.377H559.783L559.783,416.714
		 M559.783,433.313c0-2.951-2.233-6.399-4.484-6.924c-1.75-0.41-1.75-2.341,0-2.75c2.251-0.527,4.484-3.977,4.484-6.926h-7.78
		c0,1.593-3.601,5.58-5.759,6.379c-2.592,0.957-2.592,2.886,0,3.843c2.158,0.798,5.759,4.785,5.759,6.378H559.783L559.783,433.313
		 M559.783,449.912c0-2.95-2.233-6.397-4.484-6.924c-1.75-0.409-1.75-2.34,0-2.751c2.251-0.526,4.484-3.975,4.484-6.924h-7.78
		c0,1.592-3.601,5.58-5.759,6.378c-2.592,0.958-2.592,2.887,0,3.844c2.158,0.797,5.759,4.784,5.759,6.377H559.783L559.783,449.912
		 M556.489,469.555c1.291-2.842,0.335-8.16-1.791-8.852c-1.654-0.538-1.345-2.86,0.45-3.189c2.309-0.423,4.635-4.651,4.635-7.602
		h-7.78c0,1.594-3.647,5.702-5.838,6.468c-2.63,0.917-2.94,3.037-0.563,4.183c1.981,0.955,4.089,6.185,3.393,7.72L556.489,469.555
		L556.489,469.555 M542.086,488.073c2.759-2.419,4.977-7.503,3.351-8.592c-1.264-0.846,0.37-2.94,2.241-2.881
		c2.406,0.076,7.521-4.203,8.812-7.046l-7.494-1.272c-0.695,1.533-6.732,5.383-9.234,5.576c-3.003,0.233-4.431,2.062-2.816,3.628
		c1.344,1.305,0.252,6.558-1.237,7.863L542.086,488.073L542.086,488.073 M517.107,502.543c4.04-1.608,9.139-5.888,8.297-7.27
		c-0.653-1.073,2.104-2.663,3.805-2.18c2.186,0.621,10.118-2.602,12.877-5.021l-6.379-2.724c-1.49,1.307-9.509,3.578-11.976,3.258
		c-2.961-0.384-5.521,1.051-4.982,2.872c0.448,1.519-3.705,6.209-5.887,7.076L517.107,502.543L517.107,502.543 M485.147,510.362
		c4.733-0.562,11.969-3.381,12.053-4.854c0.065-1.146,4.222-2.156,5.561-1.354c1.72,1.032,10.306,0,14.347-1.611l-4.245-3.987
		c-2.181,0.871-10.98,1.206-13.065,0.338c-2.503-1.042-5.74-0.256-6.38,1.553c-0.533,1.508-7.195,4.941-9.753,5.244L485.147,510.362
		L485.147,510.362 M454.386,511.357c4.823,0,10.459-1.366,11.32-2.742c0.669-1.071,4.334-1.083,5.069-0.03
		c0.947,1.355,9.637,2.338,14.371,1.777l-1.482-4.672c-2.555,0.304-10.956-1.372-12.343-2.66c-1.664-1.548-4.943-1.539-6.509,0.046
		c-1.304,1.32-7.822,3.523-10.427,3.523V511.357L454.386,511.357 M427.25,511.357c4.821,0,10.459-1.366,11.318-2.742
		c0.671-1.071,3.827-1.071,4.496,0c0.861,1.376,6.5,2.742,11.321,2.742V506.6c-2.604,0-9.122-2.203-10.428-3.523
		c-1.564-1.585-4.716-1.585-6.282,0c-1.305,1.32-7.823,3.523-10.426,3.523V511.357L427.25,511.357 M400.113,511.357
		c4.822,0,10.459-1.366,11.319-2.742c0.669-1.071,3.826-1.071,4.496,0c0.861,1.376,6.498,2.742,11.321,2.742V506.6
		c-2.604,0-9.124-2.203-10.428-3.523c-1.566-1.585-4.719-1.585-6.284,0c-1.304,1.32-7.821,3.523-10.425,3.523V511.357
		L400.113,511.357 M372.977,511.357c4.822,0,10.459-1.366,11.318-2.742c0.67-1.071,3.828-1.071,4.497,0
		c0.859,1.376,6.498,2.742,11.321,2.742V506.6c-2.603,0-9.124-2.203-10.428-3.523c-1.565-1.585-4.718-1.585-6.282,0
		c-1.305,1.32-7.823,3.523-10.427,3.523V511.357L372.977,511.357 M345.84,511.357c4.822,0,10.458-1.366,11.319-2.742
		c0.669-1.071,3.825-1.071,4.496,0c0.861,1.376,6.5,2.742,11.321,2.742V506.6c-2.604,0-9.124-2.203-10.428-3.523
		c-1.566-1.585-4.718-1.585-6.284,0c-1.304,1.32-7.82,3.523-10.425,3.523V511.357L345.84,511.357 M318.703,511.357
		c4.822,0,10.459-1.366,11.32-2.742c0.668-1.071,3.825-1.071,4.495,0c0.86,1.376,6.498,2.742,11.321,2.742V506.6
		c-2.604,0-9.124-2.203-10.429-3.523c-1.565-1.585-4.717-1.585-6.282,0c-1.304,1.32-7.822,3.523-10.426,3.523V511.357
		L318.703,511.357 M291.565,511.357c4.822,0,10.458-1.366,11.32-2.742c0.669-1.071,3.826-1.071,4.496,0
		c0.86,1.376,6.499,2.742,11.321,2.742V506.6c-2.604,0-9.125-2.203-10.428-3.523c-1.566-1.585-4.719-1.585-6.283,0
		c-1.305,1.32-7.823,3.523-10.427,3.523V511.357L291.565,511.357 M264.429,511.357c4.822,0,10.458-1.366,11.318-2.742
		c0.67-1.071,3.827-1.071,4.497,0c0.861,1.376,6.5,2.742,11.321,2.742V506.6c-2.604,0-9.123-2.203-10.428-3.523
		c-1.565-1.585-4.717-1.585-6.284,0c-1.303,1.32-7.822,3.523-10.425,3.523V511.357L264.429,511.357 M237.292,511.357
		c4.823,0,10.459-1.366,11.32-2.742c0.67-1.071,3.825-1.071,4.495,0c0.86,1.376,6.499,2.742,11.322,2.742V506.6
		c-2.604,0-9.124-2.203-10.428-3.523c-1.565-1.585-4.718-1.585-6.284,0c-1.303,1.32-7.822,3.523-10.426,3.523V511.357
		L237.292,511.357 M210.155,511.357c4.823,0,10.459-1.366,11.32-2.742c0.669-1.071,3.827-1.071,4.496,0
		c0.861,1.376,6.499,2.742,11.321,2.742V506.6c-2.604,0-9.123-2.203-10.427-3.523c-1.566-1.585-4.718-1.585-6.283,0
		c-1.305,1.32-7.823,3.523-10.427,3.523V511.357L210.155,511.357 M183.019,511.357c4.821,0,10.458-1.366,11.319-2.742
		c0.669-1.071,3.827-1.071,4.497,0c0.861,1.376,6.498,2.742,11.32,2.742V506.6c-2.603,0-9.122-2.203-10.427-3.523
		c-1.565-1.585-4.717-1.585-6.283,0c-1.304,1.32-7.822,3.523-10.426,3.523L183.019,511.357L183.019,511.357 M155.881,511.357
		c4.823,0,10.46-1.366,11.32-2.742c0.67-1.071,3.826-1.071,4.496,0c0.861,1.376,6.499,2.742,11.321,2.742V506.6
		c-2.603,0-9.123-2.203-10.428-3.523c-1.564-1.585-4.716-1.585-6.282,0c-1.304,1.32-7.822,3.523-10.426,3.523V511.357
		L155.881,511.357 M128.745,511.357c4.823,0,10.459-1.366,11.32-2.742c0.67-1.071,3.827-1.071,4.497,0
		c0.859,1.376,6.498,2.742,11.32,2.742V506.6c-2.604,0-9.124-2.203-10.428-3.523c-1.565-1.585-4.717-1.585-6.282,0
		c-1.305,1.32-7.823,3.523-10.427,3.523V511.357L128.745,511.357 M101.608,511.357c4.822,0,10.458-1.366,11.32-2.742
		c0.669-1.071,3.827-1.071,4.497,0c0.86,1.376,6.498,2.742,11.32,2.742V506.6c-2.603,0-9.123-2.203-10.427-3.523
		c-1.565-1.585-4.717-1.585-6.283,0c-1.304,1.32-7.822,3.523-10.426,3.523V511.357L101.608,511.357 M70.228,509.699
		c4.695,0.672,13.175,0.021,14.234-1.303c0.822-1.028,4.648-0.892,5.251,0.194c0.773,1.395,7.073,2.767,11.895,2.767V506.6
		c-2.604,0-9.227-2.201-10.502-3.532c-1.533-1.597-4.933-1.728-6.724-0.236c-1.492,1.245-9.848,2.598-12.382,2.235L70.228,509.699
		L70.228,509.699 M38.853,500.747c3.908,1.729,12.328,3.07,14.129,2.093c1.401-0.762,4.847,0.231,4.726,1.374
		c-0.157,1.472,7.825,4.814,12.52,5.485l1.771-4.633c-2.535-0.362-9.01-4.087-9.42-5.608c-0.492-1.828-3.629-2.749-6.213-1.785
		c-2.152,0.804-10.847,0.151-12.957-0.78L38.853,500.747L38.853,500.747 M15.258,485.443c2.566,2.497,9.614,5.606,11.886,5.114
		c1.767-0.381,4.808,1.581,4.07,2.635c-0.949,1.355,3.73,5.828,7.638,7.556l4.557-3.855c-2.11-0.934-5.815-5.791-5.248-7.294
		c0.681-1.805-1.711-3.342-4.699-3.045c-2.489,0.248-10.234-2.294-11.619-3.644L15.258,485.443L15.258,485.443 M2.542,466.455
		c1.061,2.878,5.742,7.326,8.151,7.321c1.874-0.004,3.309,2.146,1.98,2.954c-1.709,1.039,0.019,6.217,2.585,8.713l6.585-2.533
		c-1.386-1.347-1.975-6.658-0.529-7.923c1.735-1.517,0.484-3.392-2.497-3.715c-2.483-0.269-8.115-4.312-8.688-5.864L2.542,466.455
		L2.542,466.455 M0.474,447.305c0,2.951,2.233,6.399,4.484,6.925c1.75,0.409,1.863,2.939,0.167,3.427
		c-2.18,0.626-3.645,5.923-2.583,8.799l7.587-1.047c-0.573-1.553,2.036-6.725,4.092-7.618c2.468-1.072,2.383-3.15-0.208-4.108
		c-2.159-0.797-5.759-4.784-5.759-6.377H0.474L0.474,447.305 M0.474,430.706c0,2.95,2.233,6.398,4.484,6.924
		c1.75,0.41,1.75,2.34,0,2.75c-2.251,0.527-4.484,3.976-4.484,6.925h7.78c0-1.593,3.601-5.58,5.759-6.378
		c2.591-0.958,2.591-2.886,0-3.844c-2.159-0.797-5.759-4.784-5.759-6.377H0.474L0.474,430.706 M0.474,414.106
		c0,2.95,2.233,6.398,4.484,6.924c1.75,0.409,1.75,2.341,0,2.75c-2.251,0.527-4.484,3.976-4.484,6.926h7.78
		c0-1.594,3.601-5.581,5.759-6.379c2.591-0.958,2.591-2.885,0-3.844c-2.159-0.797-5.759-4.785-5.759-6.377H0.474L0.474,414.106
		 M0.474,397.507c0,2.95,2.233,6.398,4.484,6.924c1.75,0.41,1.75,2.342,0,2.751c-2.251,0.526-4.484,3.976-4.484,6.925h7.78
		c0-1.593,3.601-5.58,5.759-6.379c2.591-0.957,2.591-2.884,0-3.844c-2.159-0.796-5.759-4.784-5.759-6.377H0.474L0.474,397.507
		 M0.474,380.908c0,2.95,2.233,6.398,4.484,6.924c1.75,0.409,1.75,2.34,0,2.75c-2.251,0.527-4.484,3.976-4.484,6.925h7.78
		c0-1.593,3.601-5.58,5.759-6.378c2.591-0.957,2.591-2.886,0-3.844c-2.159-0.797-5.759-4.784-5.759-6.377H0.474L0.474,380.908
		 M0.474,364.309c0,2.949,2.233,6.397,4.484,6.923c1.75,0.409,1.75,2.341,0,2.751c-2.251,0.526-4.484,3.975-4.484,6.925h7.78
		c0-1.593,3.601-5.581,5.759-6.379c2.591-0.958,2.591-2.885,0-3.843c-2.159-0.798-5.759-4.785-5.759-6.377H0.474L0.474,364.309
		 M0.474,347.71c0,2.949,2.233,6.397,4.484,6.923c1.75,0.41,1.75,2.341,0,2.751c-2.251,0.526-4.484,3.976-4.484,6.926h7.78
		c0-1.594,3.601-5.581,5.759-6.38c2.591-0.957,2.591-2.885,0-3.842c-2.159-0.799-5.759-4.786-5.759-6.378H0.474L0.474,347.71
		 M0.474,331.11c0,2.95,2.233,6.398,4.484,6.925c1.75,0.408,1.75,2.34,0,2.749c-2.251,0.526-4.484,3.976-4.484,6.926h7.78
		c0-1.593,3.601-5.581,5.759-6.38c2.591-0.957,2.591-2.885,0-3.842c-2.159-0.799-5.759-4.785-5.759-6.378H0.474L0.474,331.11
		 M0.474,314.512c0,2.949,2.233,6.397,4.484,6.924c1.75,0.409,1.75,2.341,0,2.75c-2.251,0.526-4.484,3.976-4.484,6.925h7.78
		c0-1.592,3.601-5.58,5.759-6.379c2.591-0.957,2.591-2.885,0-3.842c-2.159-0.799-5.759-4.785-5.759-6.378H0.474L0.474,314.512
		 M0.474,297.912c0,2.949,2.233,6.397,4.484,6.924c1.75,0.41,1.75,2.341,0,2.751c-2.251,0.525-4.484,3.974-4.484,6.925h7.78
		c0-1.592,3.601-5.581,5.759-6.38c2.591-0.957,2.591-2.885,0-3.843c-2.159-0.798-5.759-4.785-5.759-6.377H0.474L0.474,297.912
		 M0.474,281.313c0,2.95,2.233,6.397,4.484,6.924c1.75,0.409,1.75,2.341,0,2.75c-2.251,0.525-4.484,3.975-4.484,6.925h7.78
		c0-1.592,3.601-5.58,5.759-6.379c2.591-0.958,2.591-2.886,0-3.843c-2.159-0.798-5.759-4.786-5.759-6.377H0.474L0.474,281.313
		 M0.474,264.713c0,2.95,2.233,6.398,4.484,6.924c1.75,0.41,1.75,2.341,0,2.751c-2.251,0.524-4.484,3.974-4.484,6.924h7.78
		c0-1.592,3.601-5.581,5.759-6.378c2.591-0.958,2.591-2.887,0-3.843c-2.159-0.799-5.759-4.786-5.759-6.378H0.474L0.474,264.713
		 M0.474,248.114c0,2.95,2.233,6.398,4.484,6.924c1.75,0.41,1.75,2.341,0,2.75c-2.251,0.526-4.484,3.975-4.484,6.925h7.78
		c0-1.592,3.601-5.58,5.759-6.378c2.591-0.958,2.591-2.886,0-3.844c-2.159-0.798-5.759-4.784-5.759-6.377H0.474L0.474,248.114
		 M0.474,231.515c0,2.95,2.233,6.398,4.484,6.925c1.75,0.409,1.75,2.34,0,2.75c-2.251,0.525-4.484,3.974-4.484,6.924h7.78
		c0-1.593,3.601-5.581,5.759-6.378c2.591-0.957,2.591-2.886,0-3.843c-2.159-0.799-5.759-4.787-5.759-6.378H0.474L0.474,231.515
		 M0.474,214.915c0,2.95,2.233,6.397,4.484,6.924c1.75,0.41,1.75,2.341,0,2.75c-2.251,0.526-4.484,3.975-4.484,6.925h7.78
		c0-1.592,3.601-5.58,5.759-6.377c2.591-0.958,2.591-2.886,0-3.843c-2.159-0.799-5.759-4.786-5.759-6.378H0.474L0.474,214.915
		 M0.474,198.316c0,2.951,2.233,6.398,4.484,6.925c1.75,0.41,1.75,2.341,0,2.75c-2.251,0.526-4.484,3.975-4.484,6.925h7.78
		c0-1.593,3.601-5.581,5.759-6.378c2.591-0.958,2.591-2.886,0-3.843c-2.159-0.798-5.759-4.785-5.759-6.378H0.474L0.474,198.316
		 M0.474,181.717c0,2.95,2.233,6.397,4.484,6.924c1.75,0.409,1.75,2.341,0,2.75c-2.251,0.526-4.484,3.975-4.484,6.924h7.78
		c0-1.592,3.601-5.58,5.759-6.377c2.591-0.958,2.591-2.886,0-3.844c-2.159-0.798-5.759-4.785-5.759-6.377H0.474L0.474,181.717
		 M0.474,165.118c0,2.95,2.233,6.398,4.484,6.924c1.75,0.41,1.75,2.341,0,2.75c-2.251,0.526-4.484,3.975-4.484,6.925h7.78
		c0-1.592,3.601-5.581,5.759-6.378c2.591-0.958,2.591-2.885,0-3.843c-2.159-0.798-5.759-4.785-5.759-6.378H0.474L0.474,165.118
		 M0.474,148.519c0,2.949,2.233,6.397,4.484,6.924c1.75,0.409,1.75,2.34,0,2.75c-2.251,0.526-4.484,3.975-4.484,6.924h7.78
		c0-1.592,3.601-5.581,5.759-6.378c2.591-0.957,2.591-2.885,0-3.843c-2.159-0.797-5.759-4.785-5.759-6.377H0.474L0.474,148.519
		 M0.474,131.92c0,2.949,2.233,6.397,4.484,6.924c1.75,0.41,1.75,2.34,0,2.75c-2.251,0.526-4.484,3.975-4.484,6.925h7.78
		c0-1.593,3.601-5.581,5.759-6.378c2.591-0.958,2.591-2.886,0-3.843c-2.159-0.798-5.759-4.785-5.759-6.377H0.474L0.474,131.92
		 M0.803,114.445c-0.356,2.942,1.904,7.273,4.155,7.8c1.75,0.409,1.75,2.341,0,2.75c-2.251,0.527-4.484,3.975-4.484,6.925h7.78
		c0-1.593,3.601-5.581,5.759-6.378c2.591-0.958,2.591-2.886,0-3.843c-2.159-0.798-5.646-5.313-5.453-6.901L0.803,114.445
		L0.803,114.445 M9.804,94.049c-2.162,2.637-3.053,8.461-1.115,9.337c1.507,0.681,0.524,2.929-1.331,3.093
		c-2.385,0.21-6.198,5.024-6.556,7.966l7.757,0.353c0.193-1.588,5.042-6.079,7.434-6.567c2.873-0.585,3.741-2.645,1.774-4.052
		c-1.64-1.172-2.179-6.572-1.011-7.995L9.804,94.049L9.804,94.049 M29.54,77.513c-3.461,2.054-7.161,6.812-5.904,8.069
		c0.977,0.979-1.254,2.851-3.073,2.574c-2.337-0.356-8.595,3.257-10.758,5.893l6.952,2.135c1.168-1.423,8.205-4.512,10.721-4.41
		c3.021,0.121,4.969-1.515,3.874-3.242c-0.913-1.438,1.736-6.495,3.604-7.604L29.54,77.513L29.54,77.513 M58.594,66.131
		c-4.477,1.095-10.854,4.745-10.463,6.199c0.304,1.13-2.901,2.38-4.417,1.707C41.765,73.171,33,75.459,29.54,77.513l5.416,3.416
		c1.869-1.109,10.415-2.437,12.736-1.834c2.786,0.724,5.73-0.406,5.775-2.257c0.038-1.543,5.598-5.697,8.016-6.289L58.594,66.131
		L58.594,66.131 M92.053,62.176c-4.822,0.038-13.022,1.963-13.5,3.408c-0.371,1.124-4.293,1.588-5.343,0.639
		c-1.351-1.221-10.14-1.187-14.617-0.091l2.889,4.417c2.417-0.591,11.158,0.087,12.919,1.191c2.114,1.325,5.496,0.915,6.682-0.789
		c0.988-1.419,8.465-3.998,11.069-4.018L92.053,62.176L92.053,62.176 M119.438,73.047c-2.177-0.231-4.156,0.304-7.268,1.617
		c-5.423,2.29-9.116,2.29-14.538,0c-2.183-0.92-3.805-1.456-5.331-1.617v2.326c1.388,0.25,3.509,0.902,5.331,1.671
		c5.422,2.29,9.115,2.29,14.538,0c3.111-1.314,5.091-1.849,7.268-1.618V73.047L119.438,73.047 M146.576,73.047
		c-2.178-0.231-4.158,0.304-7.27,1.617c-5.422,2.29-9.114,2.29-14.537,0c-2.182-0.92-3.804-1.456-5.331-1.617v2.326
		c1.388,0.25,3.51,0.902,5.331,1.671c5.423,2.29,9.115,2.29,14.537,0c3.112-1.314,5.092-1.849,7.27-1.618V73.047L146.576,73.047
		 M173.713,73.047c-2.177-0.231-4.157,0.304-7.269,1.617c-5.423,2.29-9.115,2.29-14.537,0c-2.183-0.92-3.804-1.456-5.331-1.617
		v2.326c1.387,0.25,3.51,0.902,5.331,1.671c5.422,2.29,9.114,2.29,14.537,0c3.112-1.314,5.092-1.849,7.269-1.618V73.047
		L173.713,73.047 M200.85,73.047c-2.178-0.231-4.158,0.304-7.269,1.617c-5.424,2.29-9.115,2.29-14.539,0
		c-2.181-0.92-3.803-1.456-5.329-1.617v2.326c1.387,0.25,3.51,0.902,5.329,1.671c5.424,2.29,9.115,2.29,14.539,0
		c3.111-1.314,5.091-1.849,7.269-1.618V73.047L200.85,73.047 M227.986,73.047c-2.178-0.231-4.158,0.304-7.269,1.617
		c-5.423,2.29-9.115,2.29-14.538,0c-2.182-0.92-3.805-1.456-5.33-1.617v2.326c1.387,0.25,3.509,0.902,5.33,1.671
		c5.423,2.29,9.115,2.29,14.538,0c3.111-1.314,5.091-1.849,7.269-1.618V73.047L227.986,73.047 M255.123,73.047
		c-2.177-0.231-4.157,0.304-7.269,1.617c-5.423,2.29-9.115,2.29-14.537,0c-2.183-0.92-3.804-1.456-5.331-1.617v2.326
		c1.388,0.25,3.51,0.902,5.331,1.671c5.422,2.29,9.114,2.29,14.537,0c3.112-1.314,5.092-1.849,7.269-1.618V73.047L255.123,73.047
		 M282.259,73.047c-2.176-0.231-4.157,0.304-7.267,1.617c-5.425,2.29-9.115,2.29-14.539,0c-2.182-0.92-3.803-1.456-5.33-1.617v2.326
		c1.386,0.25,3.51,0.902,5.33,1.671c5.423,2.29,9.114,2.29,14.539,0c3.11-1.314,5.091-1.849,7.267-1.618V73.047L282.259,73.047
		 M309.396,73.047c-2.178-0.231-4.157,0.304-7.269,1.617c-5.424,2.29-9.114,2.29-14.538,0c-2.182-0.92-3.805-1.456-5.331-1.617
		v2.326c1.389,0.25,3.511,0.902,5.331,1.671c5.424,2.29,9.114,2.29,14.538,0c3.111-1.314,5.091-1.849,7.269-1.618V73.047
		L309.396,73.047 M336.533,73.047c-2.177-0.231-4.156,0.304-7.27,1.617c-5.422,2.29-9.114,2.29-14.536,0
		c-2.183-0.92-3.805-1.456-5.331-1.617v2.326c1.388,0.25,3.51,0.902,5.331,1.671c5.422,2.29,9.114,2.29,14.536,0
		c3.113-1.314,5.093-1.849,7.27-1.618V73.047L336.533,73.047 M363.67,73.047c-2.177-0.231-4.157,0.304-7.268,1.617
		c-5.425,2.29-9.114,2.29-14.539,0c-2.183-0.92-3.803-1.456-5.33-1.617v2.326c1.388,0.25,3.51,0.902,5.33,1.671
		c5.425,2.29,9.114,2.29,14.539,0c3.11-1.314,5.091-1.849,7.268-1.618V73.047L363.67,73.047 M390.808,73.047
		c-2.178-0.231-4.157,0.304-7.271,1.617c-5.422,2.29-9.114,2.29-14.537,0c-2.181-0.92-3.804-1.456-5.33-1.617v2.326
		c1.388,0.25,3.51,0.902,5.33,1.671c5.423,2.29,9.115,2.29,14.537,0c3.113-1.314,5.093-1.849,7.271-1.618V73.047L390.808,73.047
		 M417.944,73.047c-2.178-0.231-4.158,0.304-7.27,1.617c-5.423,2.29-9.114,2.29-14.537,0c-2.183-0.92-3.806-1.456-5.331-1.617v2.326
		c1.389,0.25,3.511,0.902,5.331,1.671c5.423,2.29,9.114,2.29,14.537,0c3.111-1.314,5.092-1.849,7.27-1.618V73.047L417.944,73.047
		 M445.079,73.047c-2.175-0.231-4.156,0.304-7.268,1.617c-5.423,2.29-9.114,2.29-14.537,0c-2.183-0.92-3.804-1.456-5.33-1.617v2.326
		c1.386,0.25,3.509,0.902,5.33,1.671c5.423,2.29,9.114,2.29,14.537,0c3.111-1.314,5.093-1.849,7.268-1.618V73.047L445.079,73.047
		 M472.322,73.128c-2.149-0.315-4.263,0.223-7.374,1.537c-5.423,2.29-9.113,2.29-14.537,0c-2.182-0.92-3.804-1.456-5.332-1.617
		v2.326c1.388,0.25,3.512,0.902,5.332,1.671c5.424,2.29,9.114,2.29,14.537,0c3.111-1.314,4.976-1.857,7.124-1.542L472.322,73.128
		L472.322,73.128 M499.051,77.28c-1.821-0.765-4.098-0.812-7.738-0.187c-6.344,1.089-9.085,0.686-13.93-2.046
		c-1.948-1.1-3.556-1.699-5.061-1.92l-0.244,2.322c1.359,0.303,3.133,1.036,4.759,1.954c4.845,2.732,6.87,3.029,13.214,1.94
		c3.64-0.625,5.558-0.666,7.378,0.099L499.051,77.28L499.051,77.28 M521.406,87.196c-1.213-1.129-3.35-1.659-7.104-1.931
		c-6.544-0.475-8.906-1.401-11.702-5.051c-1.125-1.469-2.272-2.398-3.55-2.935l-1.585,2.114c1.09,0.582,2.235,1.649,3.174,2.875
		c2.795,3.65,4.548,4.307,11.091,4.782c3.756,0.272,5.625,0.642,6.838,1.771L521.406,87.196L521.406,87.196 M536.356,101.4
		c-0.433-1.325-2.186-2.28-5.501-3.392c-5.778-1.938-7.223-3.273-7.884-7.283c-0.268-1.613-0.715-2.736-1.565-3.528l-2.775,1.59
		c0.651,0.79,1.154,2.133,1.378,3.48c0.662,4.01,1.593,4.872,7.371,6.809c3.315,1.111,4.916,1.856,5.349,3.182L536.356,101.4
		L536.356,101.4 M541.958,117.903c0.323-1.336-0.65-2.606-3.166-4.333c-4.383-3.01-4.944-4.684-3.096-8.552
		c0.744-1.557,0.964-2.689,0.66-3.618l-3.547,0.838c0.119,0.881-0.185,2.229-0.805,3.528c-1.85,3.868-1.455,5.087,2.928,8.097
		c2.516,1.727,3.461,2.762,3.138,4.099L541.958,117.903L541.958,117.903 M542.008,134.527c0.377-1.332-0.497-2.543-2.645-4.446
		c-3.744-3.317-3.744-5.575,0-8.892c1.506-1.335,2.368-2.348,2.595-3.286l-3.8,0.058c-0.374,0.855-1.428,2.114-2.686,3.228
		c-3.743,3.317-3.743,5.575,0,8.892c2.148,1.903,3.024,3.115,2.646,4.446H542.008L542.008,134.527 M542.008,151.126
		c0.377-1.332-0.497-2.542-2.645-4.446c-3.744-3.317-3.744-5.575,0-8.893c1.506-1.334,2.38-2.327,2.645-3.26h-3.803
		c-0.407,0.849-1.475,2.147-2.732,3.26c-3.743,3.318-3.743,5.576,0,8.893c2.148,1.903,3.024,3.114,2.646,4.446H542.008
		L542.008,151.126 M542.008,167.725c0.377-1.331-0.497-2.542-2.645-4.446c-3.744-3.317-3.744-5.576,0-8.893
		c1.506-1.334,2.38-2.326,2.645-3.26h-3.803c-0.407,0.849-1.475,2.147-2.732,3.26c-3.743,3.317-3.743,5.576,0,8.893
		c2.148,1.903,3.024,3.115,2.646,4.446H542.008L542.008,167.725 M542.008,184.324c0.377-1.332-0.497-2.542-2.645-4.446
		c-3.744-3.317-3.744-5.575,0-8.893c1.506-1.334,2.38-2.327,2.645-3.261h-3.803c-0.407,0.849-1.475,2.147-2.732,3.261
		c-3.743,3.317-3.743,5.575,0,8.893c2.148,1.903,3.024,3.114,2.646,4.446H542.008L542.008,184.324 M542.008,200.924
		c0.377-1.332-0.497-2.542-2.645-4.447c-3.744-3.316-3.744-5.575,0-8.892c1.506-1.334,2.38-2.327,2.645-3.261h-3.803
		c-0.407,0.849-1.475,2.147-2.732,3.261c-3.743,3.317-3.743,5.575,0,8.892c2.148,1.904,3.024,3.115,2.646,4.447H542.008
		L542.008,200.924 M542.008,217.523c0.377-1.332-0.497-2.542-2.645-4.446c-3.744-3.317-3.744-5.576,0-8.892
		c1.506-1.336,2.38-2.328,2.645-3.261h-3.803c-0.407,0.849-1.475,2.146-2.732,3.261c-3.743,3.316-3.743,5.575,0,8.892
		c2.148,1.904,3.024,3.115,2.646,4.446H542.008L542.008,217.523 M542.008,234.122c0.377-1.333-0.497-2.542-2.645-4.447
		c-3.744-3.316-3.744-5.575,0-8.893c1.506-1.335,2.38-2.327,2.645-3.26h-3.803c-0.407,0.849-1.475,2.146-2.732,3.26
		c-3.743,3.317-3.743,5.576,0,8.893c2.148,1.904,3.024,3.114,2.646,4.447H542.008L542.008,234.122 M542.008,250.722
		c0.377-1.332-0.497-2.542-2.645-4.447c-3.744-3.316-3.744-5.575,0-8.891c1.506-1.335,2.38-2.327,2.645-3.261h-3.803
		c-0.407,0.849-1.475,2.146-2.732,3.261c-3.743,3.316-3.743,5.575,0,8.891c2.148,1.905,3.024,3.115,2.646,4.447H542.008
		L542.008,250.722 M542.008,267.32c0.377-1.332-0.497-2.542-2.645-4.446c-3.744-3.316-3.744-5.575,0-8.893
		c1.506-1.334,2.38-2.327,2.645-3.26h-3.803c-0.407,0.848-1.475,2.146-2.732,3.26c-3.743,3.317-3.743,5.576,0,8.893
		c2.148,1.904,3.024,3.115,2.646,4.446H542.008L542.008,267.32 M542.008,283.92c0.377-1.332-0.497-2.544-2.645-4.447
		c-3.744-3.317-3.744-5.575,0-8.892c1.506-1.334,2.38-2.328,2.645-3.261h-3.803c-0.407,0.85-1.475,2.147-2.732,3.261
		c-3.743,3.317-3.743,5.575,0,8.892c2.148,1.903,3.024,3.115,2.646,4.447H542.008L542.008,283.92 M542.008,300.519
		c0.377-1.332-0.497-2.544-2.645-4.447c-3.744-3.316-3.744-5.575,0-8.892c1.506-1.334,2.38-2.327,2.645-3.26h-3.803
		c-0.407,0.848-1.475,2.147-2.732,3.26c-3.743,3.317-3.743,5.576,0,8.892c2.148,1.903,3.024,3.115,2.646,4.447H542.008
		L542.008,300.519 M542.008,317.119c0.377-1.333-0.497-2.544-2.645-4.447c-3.744-3.316-3.744-5.574,0-8.893
		c1.506-1.335,2.38-2.327,2.645-3.26h-3.803c-0.407,0.849-1.475,2.147-2.732,3.26c-3.743,3.318-3.743,5.576,0,8.893
		c2.148,1.903,3.024,3.114,2.646,4.447H542.008L542.008,317.119 M542.008,333.718c0.377-1.332-0.497-2.544-2.645-4.447
		c-3.744-3.316-3.744-5.574,0-8.892c1.506-1.336,2.38-2.327,2.645-3.26h-3.803c-0.407,0.849-1.475,2.146-2.732,3.26
		c-3.743,3.317-3.743,5.575,0,8.892c2.148,1.903,3.024,3.115,2.646,4.447H542.008L542.008,333.718 M542.008,350.317
		c0.377-1.332-0.497-2.544-2.645-4.447c-3.744-3.316-3.744-5.574,0-8.893c1.506-1.334,2.38-2.326,2.645-3.26h-3.803
		c-0.407,0.849-1.475,2.147-2.732,3.26c-3.743,3.318-3.743,5.576,0,8.893c2.148,1.903,3.024,3.115,2.646,4.447H542.008
		L542.008,350.317 M542.008,366.916c0.377-1.331-0.497-2.543-2.645-4.446c-3.744-3.317-3.744-5.575,0-8.893
		c1.506-1.335,2.38-2.326,2.645-3.26h-3.803c-0.407,0.848-1.475,2.147-2.732,3.26c-3.743,3.317-3.743,5.575,0,8.893
		c2.148,1.903,3.024,3.115,2.646,4.446H542.008L542.008,366.916 M542.008,383.515c0.377-1.331-0.497-2.543-2.645-4.445
		c-3.744-3.318-3.744-5.574,0-8.893c1.506-1.335,2.38-2.327,2.645-3.261h-3.803c-0.407,0.849-1.475,2.146-2.732,3.261
		c-3.743,3.318-3.743,5.574,0,8.893c2.148,1.902,3.024,3.114,2.646,4.445H542.008L542.008,383.515 M542.008,400.114
		c0.377-1.331-0.497-2.542-2.645-4.445c-3.744-3.318-3.744-5.575,0-8.893c1.506-1.336,2.38-2.328,2.645-3.262h-3.803
		c-0.407,0.85-1.475,2.147-2.732,3.262c-3.743,3.317-3.743,5.574,0,8.893c2.148,1.903,3.024,3.114,2.646,4.445H542.008
		L542.008,400.114 M542.008,416.714c0.377-1.332-0.497-2.543-2.645-4.446c-3.744-3.317-3.744-5.575,0-8.894
		c1.506-1.334,2.38-2.325,2.645-3.26h-3.803c-0.407,0.849-1.475,2.146-2.732,3.26c-3.743,3.318-3.743,5.576,0,8.894
		c2.148,1.903,3.024,3.114,2.646,4.446H542.008L542.008,416.714 M542.008,433.313c0.377-1.332-0.497-2.543-2.645-4.446
		c-3.744-3.317-3.744-5.575,0-8.893c1.506-1.335,2.38-2.327,2.645-3.261h-3.803c-0.407,0.849-1.475,2.146-2.732,3.261
		c-3.743,3.317-3.743,5.575,0,8.893c2.148,1.903,3.024,3.114,2.646,4.446H542.008L542.008,433.313 M542.008,449.912
		c0.377-1.331-0.497-2.543-2.645-4.446c-3.744-3.317-3.744-5.575,0-8.893c1.506-1.334,2.38-2.326,2.645-3.26h-3.803
		c-0.407,0.849-1.475,2.146-2.732,3.26c-3.743,3.317-3.743,5.575,0,8.893c2.148,1.903,3.024,3.115,2.646,4.446H542.008
		L542.008,449.912 M539.365,466.645c0.945-1.221,0.548-2.618-1.032-4.719c-2.756-3.662-2.714-5.438,1.03-8.754
		c1.506-1.334,2.38-2.327,2.645-3.261h-3.803c-0.407,0.85-1.475,2.146-2.732,3.261c-3.743,3.316-3.726,4.684-0.972,8.345
		c1.581,2.101,2.063,3.27,1.116,4.491L539.365,466.645L539.365,466.645 M527.509,481.852c1.556-0.961,2.104-2.293,1.762-4.596
		c-0.599-4.014,0.741-5.526,6-7.956c2.115-0.977,3.431-1.8,4.095-2.655l-3.664-0.623c-0.765,0.751-2.357,1.715-4.123,2.531
		c-5.258,2.429-6.293,3.521-5.696,7.534c0.344,2.305-0.008,3.444-1.563,4.403L527.509,481.852L527.509,481.852 M507.407,493.434
		c2.03-0.534,3.305-1.688,4.396-3.902c1.899-3.859,3.928-5.051,10.291-6.094c2.561-0.42,4.326-0.913,5.415-1.586l-3.117-1.332
		c-1.129,0.555-3.123,1.027-5.261,1.378c-6.364,1.042-7.856,1.917-9.757,5.776c-1.089,2.214-2.058,3.233-4.088,3.766
		L507.407,493.434L507.407,493.434 M481.762,499.688c2.209-0.026,4.071-0.848,6.467-2.636c4.177-3.118,6.69-3.851,13.228-3.35
		c2.631,0.202,4.528,0.104,5.951-0.269l-2.075-1.95c-1.385,0.255-3.475,0.277-5.668,0.109c-6.539-0.503-8.334,0.055-12.51,3.172
		c-2.396,1.789-3.926,2.56-6.133,2.587L481.762,499.688L481.762,499.688 M454.386,500.485c2.179,0.231,4.157-0.305,7.27-1.618
		c5.424-2.289,8.591-2.179,14.407-0.285c2.34,0.763,4.15,1.125,5.699,1.106l-0.724-2.283c-1.44-0.084-3.47-0.551-5.423-1.186
		c-5.815-1.894-8.536-2.021-13.96,0.269c-3.112,1.313-5.091,1.85-7.27,1.618V500.485L454.386,500.485 M427.25,500.485
		c2.177,0.231,4.156-0.305,7.27-1.618c5.422-2.289,9.114-2.289,14.536,0c2.183,0.921,3.806,1.457,5.33,1.618v-2.325
		c-1.387-0.25-3.509-0.903-5.33-1.672c-5.422-2.289-9.114-2.289-14.536,0c-3.113,1.313-5.093,1.85-7.27,1.618V500.485
		L427.25,500.485 M400.113,500.485c2.177,0.231,4.157-0.305,7.269-1.618c5.424-2.289,9.114-2.289,14.538,0
		c2.182,0.921,3.803,1.457,5.33,1.618v-2.325c-1.388-0.25-3.51-0.903-5.33-1.672c-5.424-2.289-9.114-2.289-14.538,0
		c-3.111,1.313-5.092,1.85-7.269,1.618V500.485L400.113,500.485 M372.977,500.485c2.177,0.231,4.156-0.305,7.27-1.618
		c5.422-2.289,9.113-2.289,14.535,0c2.183,0.921,3.806,1.457,5.332,1.618v-2.325c-1.388-0.25-3.511-0.903-5.332-1.672
		c-5.422-2.289-9.113-2.289-14.535,0c-3.113,1.313-5.093,1.85-7.27,1.618V500.485L372.977,500.485 M345.84,500.485
		c2.177,0.231,4.157-0.305,7.269-1.618c5.423-2.289,9.114-2.289,14.537,0c2.182,0.921,3.804,1.457,5.331,1.618v-2.325
		c-1.388-0.25-3.511-0.903-5.331-1.672c-5.423-2.289-9.114-2.289-14.537,0c-3.111,1.313-5.092,1.85-7.269,1.618V500.485
		L345.84,500.485 M318.703,500.485c2.176,0.231,4.156-0.305,7.269-1.618c5.423-2.289,9.115-2.289,14.537,0
		c2.184,0.921,3.804,1.457,5.331,1.618v-2.325c-1.388-0.25-3.51-0.903-5.331-1.672c-5.422-2.289-9.114-2.289-14.537,0
		c-3.112,1.313-5.093,1.85-7.269,1.618V500.485L318.703,500.485 M291.565,500.485c2.178,0.231,4.158-0.305,7.269-1.618
		c5.425-2.289,9.114-2.289,14.539,0c2.181,0.921,3.802,1.457,5.33,1.618v-2.325c-1.388-0.25-3.511-0.903-5.33-1.672
		c-5.425-2.289-9.114-2.289-14.539,0c-3.11,1.313-5.091,1.85-7.269,1.618V500.485L291.565,500.485 M264.429,500.485
		c2.177,0.231,4.157-0.305,7.269-1.618c5.423-2.289,9.115-2.289,14.537,0c2.182,0.921,3.805,1.457,5.33,1.618v-2.325
		c-1.387-0.25-3.509-0.903-5.33-1.672c-5.422-2.289-9.114-2.289-14.537,0c-3.112,1.313-5.092,1.85-7.269,1.618V500.485
		L264.429,500.485 M237.292,500.485c2.177,0.231,4.158-0.305,7.27-1.618c5.422-2.289,9.115-2.289,14.537,0
		c2.182,0.921,3.804,1.457,5.331,1.618v-2.325c-1.388-0.25-3.51-0.903-5.331-1.672c-5.422-2.289-9.115-2.289-14.537,0
		c-3.112,1.313-5.093,1.85-7.27,1.618V500.485L237.292,500.485 M210.156,500.485c2.176,0.231,4.157-0.305,7.268-1.618
		c5.423-2.289,9.115-2.289,14.538,0c2.182,0.921,3.803,1.457,5.33,1.618v-2.325c-1.387-0.25-3.509-0.903-5.33-1.672
		c-5.423-2.289-9.115-2.289-14.538,0c-3.111,1.313-5.092,1.85-7.268,1.618V500.485L210.156,500.485 M183.019,500.485
		c2.176,0.231,4.157-0.305,7.269-1.618c5.423-2.289,9.114-2.289,14.538,0c2.181,0.921,3.804,1.457,5.331,1.618v-2.325
		c-1.388-0.25-3.51-0.903-5.331-1.672c-5.423-2.289-9.115-2.289-14.538,0c-3.111,1.313-5.092,1.85-7.269,1.618V500.485
		L183.019,500.485 M155.881,500.485c2.177,0.231,4.158-0.305,7.27-1.618c5.422-2.289,9.114-2.289,14.537,0
		c2.182,0.921,3.805,1.457,5.331,1.618v-2.325c-1.388-0.25-3.51-0.903-5.331-1.672c-5.423-2.289-9.114-2.289-14.537,0
		c-3.112,1.313-5.093,1.85-7.27,1.618V500.485L155.881,500.485 M128.745,500.485c2.177,0.231,4.157-0.305,7.269-1.618
		c5.423-2.289,9.115-2.289,14.538,0c2.182,0.921,3.803,1.457,5.33,1.618v-2.325c-1.387-0.25-3.509-0.903-5.33-1.672
		c-5.423-2.289-9.115-2.289-14.538,0c-3.112,1.313-5.092,1.85-7.269,1.618V500.485L128.745,500.485 M101.608,500.485
		c2.177,0.231,4.157-0.305,7.268-1.618c5.424-2.289,9.115-2.289,14.539,0c2.181,0.921,3.803,1.457,5.329,1.618v-2.325
		c-1.387-0.25-3.509-0.903-5.329-1.672c-5.424-2.289-9.115-2.289-14.539,0c-3.111,1.313-5.091,1.85-7.268,1.618V500.485
		L101.608,500.485 M74.274,499.113c2.034,0.528,4.258,0.323,7.64-0.712c5.895-1.801,8.94-1.823,14.364,0.466
		c2.182,0.921,3.804,1.457,5.331,1.618v-2.325c-1.388-0.25-3.51-0.903-5.331-1.672c-5.423-2.289-7.924-2.244-13.818-0.442
		c-3.382,1.035-5.267,1.279-7.3,0.751L74.274,499.113L74.274,499.113 M49.264,491.936c1.543,0.967,3.786,1.257,7.556,1.082
		c6.57-0.304,9.127,0.37,13.042,3.613c1.574,1.304,2.987,2.111,4.413,2.481l0.865-2.266c-1.258-0.435-2.703-1.378-4.017-2.467
		c-3.915-3.242-5.772-3.721-12.342-3.416c-3.77,0.175-5.695,0.011-7.239-0.956L49.264,491.936L49.264,491.936 M30.305,479.657
		c0.839,1.251,2.81,2.003,6.411,2.707c6.275,1.228,8.372,2.384,9.967,6.294c0.641,1.573,1.499,2.602,2.581,3.278l2.228-1.886
		c-0.885-0.697-1.703-1.864-2.238-3.177c-1.594-3.91-3.183-4.734-9.458-5.963c-3.601-0.704-5.359-1.269-6.198-2.52L30.305,479.657
		L30.305,479.657 M19.878,464.062c0.111,1.35,1.361,2.495,4.378,3.89c5.258,2.43,6.188,4.053,5.59,8.067
		c-0.241,1.613-0.13,2.762,0.458,3.638l3.219-1.237c-0.394-0.852-0.491-2.222-0.29-3.569c0.598-4.014-0.028-5.218-5.286-7.646
		c-3.017-1.394-4.165-2.316-4.275-3.666L19.878,464.062L19.878,464.062 M18.249,447.305c-0.377,1.332,0.497,2.543,2.645,4.446
		c3.744,3.317,3.737,5.226,0.69,8.8c-1.226,1.438-1.784,2.565-1.706,3.512l3.709-0.511c0.093-0.884,0.833-2.094,1.856-3.294
		c3.047-3.574,3.083-5.189-0.66-8.507c-2.148-1.903-3.022-3.114-2.645-4.446H18.249L18.249,447.305 M18.249,430.706
		c-0.377,1.331,0.497,2.543,2.645,4.446c3.744,3.317,3.744,5.575,0,8.893c-1.506,1.335-2.38,2.326-2.645,3.26h3.803
		c0.408-0.849,1.476-2.146,2.732-3.26c3.744-3.317,3.744-5.575,0-8.893c-2.148-1.903-3.022-3.115-2.645-4.446H18.249L18.249,430.706
		 M18.249,414.106c-0.377,1.331,0.497,2.543,2.645,4.446c3.744,3.318,3.744,5.575,0,8.893c-1.506,1.335-2.38,2.327-2.645,3.261
		h3.803c0.408-0.85,1.476-2.146,2.732-3.261c3.744-3.317,3.744-5.574,0-8.893c-2.148-1.903-3.022-3.115-2.645-4.446H18.249
		L18.249,414.106 M18.249,397.507c-0.377,1.332,0.497,2.543,2.645,4.446c3.744,3.317,3.744,5.576,0,8.894
		c-1.506,1.334-2.38,2.325-2.645,3.26h3.803c0.408-0.849,1.476-2.146,2.732-3.26c3.744-3.317,3.744-5.576,0-8.894
		c-2.148-1.903-3.022-3.114-2.645-4.446H18.249L18.249,397.507 M18.249,380.908c-0.377,1.332,0.497,2.543,2.645,4.446
		c3.744,3.317,3.744,5.576,0,8.893c-1.506,1.334-2.38,2.326-2.645,3.26h3.803c0.408-0.849,1.476-2.146,2.732-3.26
		c3.744-3.316,3.744-5.575,0-8.893c-2.148-1.903-3.022-3.114-2.645-4.446H18.249L18.249,380.908 M18.249,364.309
		c-0.377,1.33,0.497,2.543,2.645,4.445c3.744,3.318,3.744,5.576,0,8.893c-1.506,1.335-2.38,2.327-2.645,3.261h3.803
		c0.408-0.848,1.476-2.146,2.732-3.261c3.744-3.316,3.744-5.574,0-8.893c-2.148-1.902-3.022-3.115-2.645-4.445H18.249
		L18.249,364.309 M18.249,347.71c-0.377,1.331,0.497,2.543,2.645,4.446c3.744,3.317,3.744,5.575,0,8.893
		c-1.506,1.334-2.38,2.326-2.645,3.261h3.803c0.408-0.849,1.476-2.147,2.732-3.261c3.744-3.317,3.744-5.575,0-8.893
		c-2.148-1.903-3.022-3.115-2.645-4.446H18.249L18.249,347.71 M18.249,331.11c-0.377,1.333,0.497,2.543,2.645,4.445
		c3.744,3.318,3.744,5.576,0,8.894c-1.506,1.334-2.38,2.326-2.645,3.261h3.803c0.408-0.848,1.476-2.147,2.732-3.261
		c3.744-3.317,3.744-5.575,0-8.894c-2.148-1.902-3.022-3.112-2.645-4.445H18.249L18.249,331.11 M18.249,314.512
		c-0.377,1.331,0.497,2.542,2.645,4.445c3.744,3.318,3.744,5.575,0,8.893c-1.506,1.334-2.38,2.327-2.645,3.261h3.803
		c0.408-0.849,1.476-2.146,2.732-3.261c3.744-3.317,3.744-5.574,0-8.893c-2.148-1.903-3.022-3.114-2.645-4.445H18.249
		L18.249,314.512 M18.249,297.912c-0.377,1.332,0.497,2.542,2.645,4.447c3.744,3.316,3.744,5.574,0,8.891
		c-1.506,1.335-2.38,2.328-2.645,3.262h3.803c0.408-0.849,1.476-2.147,2.732-3.262c3.744-3.316,3.744-5.574,0-8.891
		c-2.148-1.905-3.022-3.115-2.645-4.447H18.249L18.249,297.912 M18.249,281.313c-0.377,1.333,0.497,2.542,2.645,4.446
		c3.744,3.317,3.744,5.575,0,8.892c-1.506,1.335-2.38,2.328-2.645,3.261h3.803c0.408-0.849,1.476-2.147,2.732-3.261
		c3.744-3.317,3.744-5.575,0-8.892c-2.148-1.904-3.022-3.114-2.645-4.446H18.249L18.249,281.313 M18.249,264.713
		c-0.377,1.332,0.497,2.543,2.645,4.447c3.744,3.317,3.744,5.575,0,8.892c-1.506,1.335-2.38,2.328-2.645,3.261h3.803
		c0.408-0.848,1.476-2.147,2.732-3.261c3.744-3.317,3.744-5.575,0-8.892c-2.148-1.904-3.022-3.115-2.645-4.447H18.249
		L18.249,264.713 M18.249,248.114c-0.377,1.333,0.497,2.542,2.645,4.446c3.744,3.316,3.744,5.575,0,8.894
		c-1.506,1.334-2.38,2.327-2.645,3.259h3.803c0.408-0.848,1.476-2.147,2.732-3.259c3.744-3.318,3.744-5.577,0-8.894
		c-2.148-1.904-3.022-3.114-2.645-4.446H18.249L18.249,248.114 M18.249,231.515c-0.377,1.333,0.497,2.543,2.645,4.447
		c3.744,3.317,3.744,5.576,0,8.892c-1.506,1.335-2.38,2.328-2.645,3.261h3.803c0.408-0.849,1.476-2.147,2.732-3.261
		c3.744-3.316,3.744-5.575,0-8.892c-2.148-1.903-3.022-3.114-2.645-4.447H18.249L18.249,231.515 M18.249,214.915
		c-0.377,1.333,0.497,2.542,2.645,4.447c3.744,3.316,3.744,5.575,0,8.892c-1.506,1.335-2.38,2.328-2.645,3.26h3.803
		c0.408-0.848,1.476-2.146,2.732-3.26c3.744-3.317,3.744-5.576,0-8.892c-2.148-1.904-3.022-3.114-2.645-4.447H18.249L18.249,214.915
		 M18.249,198.316c-0.377,1.333,0.497,2.544,2.645,4.447c3.744,3.317,3.744,5.576,0,8.893c-1.506,1.334-2.38,2.326-2.645,3.26h3.803
		c0.408-0.849,1.476-2.146,2.732-3.26c3.744-3.317,3.744-5.576,0-8.893c-2.148-1.903-3.022-3.114-2.645-4.447H18.249L18.249,198.316
		 M18.249,181.717c-0.377,1.332,0.497,2.543,2.645,4.447c3.744,3.317,3.744,5.575,0,8.893c-1.506,1.334-2.38,2.326-2.645,3.259
		h3.803c0.408-0.848,1.476-2.146,2.732-3.259c3.744-3.318,3.744-5.576,0-8.893c-2.148-1.903-3.022-3.115-2.645-4.447H18.249
		L18.249,181.717 M18.249,165.118c-0.377,1.332,0.497,2.543,2.645,4.446c3.744,3.317,3.744,5.575,0,8.893
		c-1.506,1.334-2.38,2.327-2.645,3.26h3.803c0.408-0.849,1.476-2.146,2.732-3.26c3.744-3.317,3.744-5.576,0-8.893
		c-2.148-1.903-3.022-3.114-2.645-4.446H18.249L18.249,165.118 M18.249,148.519c-0.377,1.332,0.497,2.543,2.645,4.446
		c3.744,3.317,3.744,5.575,0,8.892c-1.506,1.335-2.38,2.327-2.645,3.261h3.803c0.408-0.849,1.476-2.147,2.732-3.261
		c3.744-3.317,3.744-5.575,0-8.892c-2.148-1.903-3.022-3.114-2.645-4.446H18.249L18.249,148.519 M18.249,131.92
		c-0.377,1.332,0.497,2.542,2.645,4.446c3.744,3.317,3.744,5.575,0,8.892c-1.506,1.335-2.38,2.327-2.645,3.261h3.803
		c0.408-0.849,1.476-2.147,2.732-3.261c3.744-3.317,3.744-5.575,0-8.892c-2.148-1.904-3.022-3.114-2.645-4.446H18.249L18.249,131.92
		 M18.528,115.25c-0.538,1.311,0.218,2.614,2.366,4.517c3.744,3.317,3.744,5.576,0,8.893c-1.506,1.334-2.38,2.327-2.645,3.261h3.803
		c0.408-0.849,1.476-2.147,2.732-3.261c3.744-3.317,3.744-5.575,0-8.893c-2.148-1.903-2.915-3.03-2.378-4.34L18.528,115.25
		L18.528,115.25 M25.689,98.926c-1.313,1.086-1.287,2.523-0.404,4.771c1.54,3.919,1.093,5.618-3.527,8.492
		c-1.859,1.156-2.853,2.141-3.23,3.06l3.792,0.172c0.51-0.828,1.719-1.858,3.27-2.824c4.619-2.874,4.864-4.125,3.325-8.044
		c-0.884-2.248-1.063-3.476,0.251-4.562L25.689,98.926L25.689,98.926 M41.915,85.316c-1.825,0.762-2.744,2.025-3.123,4.327
		c-0.662,4.009-2.357,5.384-8.281,7.149c-2.383,0.71-3.9,1.373-4.822,2.135l3.398,1.043c0.987-0.647,2.823-1.417,4.812-2.009
		c5.924-1.766,7.193-2.767,7.854-6.777c0.38-2.301,1.045-3.399,2.87-4.16L41.915,85.316L41.915,85.316 M65.193,76.225
		c-2.161,0.28-3.763,1.286-5.533,3.33c-3.084,3.562-5.39,4.533-11.963,4.815c-2.644,0.113-4.503,0.412-5.783,0.946l2.648,1.669
		c1.28-0.412,3.355-0.663,5.563-0.757c6.573-0.282,8.244-1,11.329-4.562c1.77-2.043,3.022-2.952,5.183-3.232L65.193,76.225
		L65.193,76.225 M92.281,73.047c-2.182-0.214-4.241,0.359-7.148,1.838c-5.066,2.578-7.789,3.042-14.035,1.759
		c-2.513-0.516-4.388-0.615-5.904-0.418l1.413,2.16c1.439-0.083,3.47,0.115,5.567,0.545c6.247,1.283,8.242,0.902,13.308-1.675
		c2.907-1.479,4.668-2.042,6.85-1.829L92.281,73.047L92.281,73.047 M119.438,77.806c-2.177-0.231-4.156,0.304-7.268,1.618
		c-5.423,2.29-9.116,2.29-14.538,0c-2.183-0.921-3.805-1.457-5.331-1.618v4.705c1.388,0.25,3.509,0.902,5.331,1.671
		c2.494,1.053,5.473,1.785,7.269,1.785c1.795,0,4.775-0.731,7.27-1.785c2.323-0.981,5.158-1.784,6.298-1.784
		c0.249,0,0.586,0.044,0.97,0.113V77.806L119.438,77.806 M146.576,77.806c-2.178-0.231-4.158,0.304-7.27,1.618
		c-5.422,2.29-9.114,2.29-14.537,0c-2.182-0.921-3.804-1.457-5.331-1.618v4.705c1.388,0.25,3.51,0.902,5.331,1.671
		c2.495,1.053,5.474,1.785,7.27,1.785c1.795,0,4.773-0.731,7.267-1.785c2.325-0.981,5.161-1.784,6.3-1.784
		c0.247,0,0.586,0.044,0.97,0.113V77.806L146.576,77.806 M173.713,77.806c-2.177-0.231-4.157,0.304-7.269,1.618
		c-5.423,2.29-9.115,2.29-14.537,0c-2.183-0.921-3.804-1.457-5.331-1.618v4.705c1.387,0.25,3.51,0.902,5.331,1.671
		c2.494,1.053,5.473,1.785,7.268,1.785c1.796,0,4.775-0.731,7.27-1.785c2.324-0.981,5.158-1.784,6.3-1.784
		c0.247,0,0.585,0.044,0.969,0.113V77.806L173.713,77.806 M200.85,77.806c-2.178-0.231-4.158,0.304-7.269,1.618
		c-5.424,2.29-9.115,2.29-14.538,0c-2.182-0.921-3.804-1.457-5.33-1.618v4.705c1.387,0.25,3.51,0.902,5.33,1.671
		c2.494,1.053,5.473,1.785,7.269,1.785s4.775-0.731,7.27-1.785c2.323-0.981,5.158-1.784,6.299-1.784c0.248,0,0.585,0.044,0.97,0.113
		V77.806L200.85,77.806 M227.986,77.806c-2.178-0.231-4.158,0.304-7.269,1.618c-5.423,2.29-9.115,2.29-14.538,0
		c-2.182-0.921-3.805-1.457-5.33-1.618v4.705c1.387,0.25,3.509,0.902,5.33,1.671c2.494,1.053,5.473,1.785,7.27,1.785
		c1.795,0,4.774-0.731,7.268-1.785c2.324-0.981,5.16-1.784,6.299-1.784c0.248,0,0.586,0.044,0.97,0.113V77.806L227.986,77.806
		 M255.123,77.806c-2.177-0.231-4.157,0.304-7.269,1.618c-5.422,2.29-9.115,2.29-14.537,0c-2.183-0.921-3.804-1.457-5.331-1.618
		v4.705c1.388,0.25,3.51,0.902,5.331,1.671c2.494,1.053,5.473,1.785,7.269,1.785c1.795,0,4.774-0.731,7.269-1.785
		c2.325-0.981,5.159-1.784,6.3-1.784c0.247,0,0.585,0.044,0.969,0.113V77.806L255.123,77.806 M282.259,77.806
		c-2.176-0.231-4.157,0.304-7.267,1.618c-5.425,2.29-9.115,2.29-14.539,0c-2.182-0.921-3.803-1.457-5.33-1.618v4.705
		c1.387,0.25,3.51,0.902,5.33,1.671c2.494,1.053,5.473,1.785,7.269,1.785c1.796,0,4.775-0.731,7.27-1.785
		c2.323-0.981,5.158-1.784,6.299-1.784c0.247,0,0.584,0.044,0.968,0.113V77.806L282.259,77.806 M309.396,77.806
		c-2.178-0.231-4.157,0.304-7.269,1.618c-5.424,2.29-9.113,2.29-14.538,0c-2.182-0.921-3.803-1.457-5.331-1.618v4.705
		c1.389,0.25,3.511,0.902,5.331,1.671c2.494,1.053,5.473,1.785,7.27,1.785c1.795,0,4.774-0.731,7.269-1.785
		c2.323-0.981,5.159-1.784,6.299-1.784c0.248,0,0.586,0.044,0.97,0.113V77.806L309.396,77.806 M336.533,77.806
		c-2.177-0.231-4.156,0.304-7.27,1.618c-5.422,2.29-9.114,2.29-14.536,0c-2.183-0.921-3.805-1.457-5.331-1.618v4.705
		c1.388,0.25,3.51,0.902,5.331,1.671c2.493,1.053,5.473,1.785,7.268,1.785c1.797,0,4.775-0.731,7.269-1.785
		c2.326-0.981,5.16-1.784,6.301-1.784c0.246,0,0.585,0.044,0.969,0.113V77.806L336.533,77.806 M363.67,77.806
		c-2.177-0.231-4.157,0.304-7.268,1.618c-5.425,2.29-9.114,2.29-14.539,0c-2.183-0.921-3.803-1.457-5.33-1.618v4.705
		c1.388,0.25,3.51,0.902,5.33,1.671c2.494,1.053,5.473,1.785,7.269,1.785s4.775-0.731,7.271-1.785
		c2.323-0.981,5.158-1.784,6.299-1.784c0.248,0,0.585,0.044,0.969,0.113V77.806L363.67,77.806 M390.808,77.806
		c-2.178-0.231-4.157,0.304-7.271,1.618c-5.422,2.29-9.114,2.29-14.537,0c-2.181-0.921-3.804-1.457-5.33-1.618v4.705
		c1.388,0.25,3.51,0.902,5.33,1.671c2.494,1.053,5.474,1.785,7.269,1.785c1.797,0,4.776-0.731,7.269-1.785
		c2.325-0.981,5.161-1.784,6.301-1.784c0.247,0,0.585,0.044,0.97,0.113V77.806L390.808,77.806 M417.944,77.806
		c-2.178-0.231-4.158,0.304-7.27,1.618c-5.423,2.29-9.114,2.29-14.537,0c-2.183-0.921-3.806-1.457-5.331-1.618v4.705
		c1.389,0.25,3.511,0.902,5.331,1.671c2.494,1.053,5.472,1.785,7.269,1.785c1.795,0,4.775-0.731,7.269-1.785
		c2.324-0.981,5.159-1.784,6.3-1.784c0.247,0,0.586,0.044,0.97,0.113V77.806L417.944,77.806 M445.079,77.806
		c-2.175-0.231-4.156,0.304-7.268,1.618c-5.423,2.29-9.114,2.29-14.537,0c-2.183-0.921-3.804-1.457-5.33-1.618v4.705
		c1.386,0.25,3.509,0.902,5.33,1.671c2.492,1.053,5.474,1.785,7.269,1.785s4.775-0.731,7.269-1.785
		c2.325-0.981,5.158-1.784,6.3-1.784c0.247,0,0.586,0.044,0.968,0.113V77.806L445.079,77.806 M471.824,77.876
		c-2.149-0.315-3.765,0.233-6.876,1.547c-5.423,2.29-9.113,2.29-14.537,0c-2.182-0.921-3.804-1.457-5.332-1.618v4.705
		c1.388,0.25,3.512,0.902,5.332,1.671c2.494,1.053,5.472,1.785,7.269,1.785c1.795,0,4.774-0.731,7.269-1.785
		c2.324-0.981,4.636-1.77,5.776-1.743c0.246,0.006,0.232,0.049,0.607,0.133L471.824,77.876L471.824,77.876 M495.808,81.605
		c-1.821-0.765-3.378-0.636-7.018-0.011c-6.345,1.09-7.653,0.897-12.497-1.835c-1.949-1.099-2.962-1.661-4.469-1.882l-0.492,4.696
		c1.358,0.303,2.243,0.98,3.869,1.897c2.229,1.257,3.282,2.142,5.031,2.393c1.749,0.25,3.115-0.268,6.032-0.769
		c2.719-0.467,4.497-0.854,5.532-0.563c0.226,0.063,0.503,0.189,0.804,0.35L495.808,81.605L495.808,81.605 M515.73,90.449
		c-1.213-1.129-2.816-1.34-6.57-1.613c-6.544-0.475-7.687-0.862-10.481-4.512c-1.124-1.468-1.594-2.182-2.871-2.718l-3.207,4.276
		c1.09,0.581,1.218,1.325,2.156,2.55c1.286,1.679,1.626,2.643,3.081,3.287s3.171,0.469,6.181,0.687
		c2.804,0.204,4.79,0.24,5.57,0.749c0.168,0.111,0.347,0.292,0.527,0.511L515.73,90.449L515.73,90.449 M529.101,103.113
		c-0.433-1.326-1.882-1.859-5.197-2.971c-5.776-1.938-6.195-2.325-6.858-6.335c-0.265-1.613-0.465-2.567-1.314-3.359l-5.614,3.216
		c0.65,0.79,0.783,1.878,1.004,3.225c0.305,1.844-0.518,2.429,0.438,3.358c0.957,0.93,2.736,1.137,5.395,2.028
		c2.476,0.83,4.56,1.68,5.021,2.317c0.102,0.138-0.083-0.03-0.05,0.214L529.101,103.113L529.101,103.113 M534.183,118.02
		c0.323-1.336-0.596-2.137-3.11-3.864c-4.383-3.009-4.609-3.774-2.761-7.643c0.744-1.557,1.092-2.471,0.789-3.4l-7.177,1.694
		c0.12,0.882-0.375,1.903-0.995,3.202c-0.85,1.779-1.759,2.655-1.364,3.726c0.396,1.072,1.774,1.623,3.789,3.007
		c1.878,1.29,3.273,2.101,3.3,2.799c0.008,0.151-0.057,0.359-0.16,0.596L534.183,118.02L534.183,118.02 M534.229,134.527
		c0.378-1.332-0.498-2.543-2.646-4.446c-3.744-3.317-3.744-5.575,0-8.892c1.505-1.335,2.372-2.231,2.599-3.168l-7.689,0.116
		c-0.373,0.854-1.433,1.938-2.688,3.052c-1.722,1.525-2.917,3.348-2.917,4.446c0,1.099,1.195,2.921,2.917,4.446
		c1.605,1.422,2.917,3.156,2.917,3.854c0,0.151-0.072,0.358-0.184,0.593H534.229L534.229,134.527 M534.229,151.126
		c0.378-1.332-0.498-2.542-2.646-4.446c-3.744-3.317-3.744-5.575,0-8.893c1.505-1.334,2.38-2.327,2.646-3.26h-7.691
		c-0.41,0.849-1.478,2.147-2.733,3.26c-1.722,1.526-2.917,3.348-2.917,4.447c0,1.098,1.195,2.921,2.917,4.446
		c1.605,1.421,2.917,3.156,2.917,3.853c0,0.151-0.072,0.358-0.184,0.593H534.229L534.229,151.126 M534.229,167.725
		c0.378-1.331-0.498-2.542-2.646-4.446c-3.744-3.317-3.744-5.575,0-8.893c1.505-1.334,2.38-2.326,2.646-3.26h-7.691
		c-0.41,0.849-1.478,2.147-2.733,3.26c-1.722,1.526-2.917,3.349-2.917,4.447s1.195,2.92,2.917,4.446
		c1.605,1.421,2.917,3.156,2.917,3.854c0,0.151-0.072,0.358-0.184,0.592H534.229L534.229,167.725 M534.229,184.324
		c0.378-1.332-0.498-2.542-2.646-4.445c-3.744-3.318-3.744-5.576,0-8.893c1.505-1.334,2.38-2.327,2.646-3.261h-7.691
		c-0.41,0.849-1.478,2.147-2.733,3.261c-1.722,1.525-2.917,3.348-2.917,4.446s1.195,2.921,2.917,4.447
		c1.605,1.421,2.917,3.155,2.917,3.853c0,0.151-0.072,0.358-0.184,0.592H534.229L534.229,184.324 M534.229,200.924
		c0.378-1.332-0.498-2.542-2.646-4.447c-3.744-3.316-3.744-5.575,0-8.892c1.505-1.334,2.38-2.327,2.646-3.261h-7.691
		c-0.41,0.849-1.478,2.147-2.733,3.261c-1.722,1.525-2.917,3.347-2.917,4.446c0,1.099,1.195,2.921,2.917,4.446
		c1.605,1.423,2.917,3.157,2.917,3.854c0,0.151-0.072,0.358-0.184,0.593H534.229L534.229,200.924 M534.229,217.523
		c0.378-1.332-0.498-2.542-2.646-4.446c-3.744-3.317-3.744-5.576,0-8.892c1.505-1.335,2.38-2.328,2.646-3.261h-7.691
		c-0.41,0.849-1.478,2.146-2.733,3.261c-1.722,1.524-2.917,3.347-2.917,4.446c0,1.098,1.195,2.921,2.917,4.446
		c1.605,1.422,2.917,3.156,2.917,3.854c0,0.151-0.072,0.358-0.184,0.593H534.229L534.229,217.523 M534.229,234.122
		c0.378-1.333-0.498-2.542-2.646-4.447c-3.744-3.316-3.744-5.575,0-8.892c1.505-1.336,2.38-2.328,2.646-3.261h-7.691
		c-0.41,0.849-1.478,2.146-2.733,3.261c-1.722,1.525-2.917,3.347-2.917,4.445c0,1.098,1.195,2.921,2.917,4.446
		c1.605,1.422,2.917,3.156,2.917,3.854c0,0.151-0.072,0.358-0.184,0.593H534.229L534.229,234.122 M534.229,250.722
		c0.378-1.332-0.498-2.542-2.646-4.447c-3.744-3.316-3.744-5.575,0-8.891c1.505-1.334,2.38-2.327,2.646-3.261h-7.691
		c-0.41,0.849-1.478,2.146-2.733,3.261c-1.722,1.525-2.917,3.347-2.917,4.445c0,1.1,1.195,2.921,2.917,4.446
		c1.605,1.423,2.917,3.156,2.917,3.855c0,0.15-0.072,0.358-0.184,0.592H534.229L534.229,250.722 M534.229,267.32
		c0.378-1.332-0.498-2.542-2.646-4.446c-3.744-3.316-3.744-5.575,0-8.891c1.505-1.336,2.38-2.328,2.646-3.261h-7.691
		c-0.41,0.848-1.478,2.146-2.733,3.261c-1.722,1.524-2.917,3.346-2.917,4.446c0,1.098,1.195,2.921,2.917,4.445
		c1.605,1.422,2.917,3.156,2.917,3.854c0,0.151-0.072,0.357-0.184,0.592H534.229L534.229,267.32 M534.229,283.92
		c0.378-1.332-0.498-2.544-2.646-4.447c-3.744-3.317-3.744-5.575,0-8.892c1.505-1.334,2.38-2.328,2.646-3.261h-7.691
		c-0.41,0.85-1.478,2.147-2.733,3.261c-1.722,1.526-2.917,3.348-2.917,4.446c0,1.098,1.195,2.921,2.917,4.446
		c1.605,1.421,2.917,3.156,2.917,3.855c0,0.15-0.072,0.357-0.184,0.592H534.229L534.229,283.92 M534.229,300.519
		c0.378-1.332-0.498-2.544-2.646-4.447c-3.744-3.316-3.744-5.575,0-8.892c1.505-1.334,2.38-2.327,2.646-3.26h-7.691
		c-0.41,0.848-1.478,2.147-2.733,3.26c-1.722,1.526-2.917,3.347-2.917,4.446s1.195,2.923,2.917,4.446
		c1.605,1.422,2.917,3.157,2.917,3.854c0,0.15-0.072,0.357-0.184,0.593H534.229L534.229,300.519 M534.229,317.119
		c0.378-1.333-0.498-2.544-2.646-4.447c-3.744-3.316-3.744-5.574,0-8.893c1.505-1.335,2.38-2.327,2.646-3.26h-7.691
		c-0.41,0.849-1.478,2.147-2.733,3.26c-1.722,1.526-2.917,3.348-2.917,4.447c0,1.098,1.195,2.92,2.917,4.445
		c1.605,1.422,2.917,3.156,2.917,3.854c0,0.15-0.072,0.357-0.184,0.593H534.229L534.229,317.119 M534.229,333.718
		c0.378-1.332-0.498-2.544-2.646-4.447c-3.744-3.316-3.744-5.574,0-8.892c1.505-1.336,2.38-2.327,2.646-3.26h-7.691
		c-0.41,0.849-1.478,2.146-2.733,3.26c-1.722,1.525-2.917,3.348-2.917,4.446c0,1.098,1.195,2.921,2.917,4.445
		c1.605,1.422,2.917,3.157,2.917,3.854c0,0.15-0.072,0.357-0.184,0.593H534.229L534.229,333.718 M534.229,350.317
		c0.378-1.332-0.498-2.544-2.646-4.447c-3.744-3.316-3.744-5.574,0-8.893c1.505-1.334,2.38-2.326,2.646-3.26h-7.691
		c-0.41,0.849-1.478,2.147-2.733,3.26c-1.722,1.526-2.917,3.348-2.917,4.447c0,1.098,1.195,2.921,2.917,4.445
		c1.605,1.422,2.917,3.155,2.917,3.854c0,0.151-0.072,0.358-0.184,0.593L534.229,350.317L534.229,350.317 M534.229,366.916
		c0.378-1.331-0.498-2.543-2.646-4.446c-3.744-3.317-3.744-5.575,0-8.893c1.505-1.335,2.38-2.326,2.646-3.261h-7.691
		c-0.41,0.849-1.478,2.148-2.733,3.261c-1.722,1.525-2.917,3.348-2.917,4.446s1.195,2.92,2.917,4.446
		c1.605,1.421,2.917,3.155,2.917,3.854c0,0.151-0.072,0.357-0.184,0.593H534.229L534.229,366.916 M534.229,383.515
		c0.378-1.331-0.498-2.543-2.646-4.445c-3.744-3.318-3.744-5.574,0-8.893c1.505-1.335,2.38-2.327,2.646-3.261h-7.691
		c-0.41,0.849-1.478,2.146-2.733,3.261c-1.722,1.525-2.917,3.348-2.917,4.447c0,1.098,1.195,2.918,2.917,4.445
		c1.605,1.422,2.917,3.154,2.917,3.854c0,0.151-0.072,0.357-0.184,0.592H534.229L534.229,383.515 M534.229,400.114
		c0.378-1.331-0.498-2.542-2.646-4.445c-3.744-3.318-3.744-5.575,0-8.893c1.505-1.336,2.38-2.328,2.646-3.262h-7.691
		c-0.41,0.85-1.478,2.147-2.733,3.262c-1.722,1.525-2.917,3.348-2.917,4.446c0,1.098,1.195,2.92,2.917,4.446
		c1.605,1.421,2.917,3.155,2.917,3.852c0,0.152-0.072,0.358-0.184,0.594H534.229L534.229,400.114 M534.229,416.714
		c0.378-1.332-0.498-2.543-2.646-4.446c-3.744-3.317-3.744-5.575,0-8.894c1.505-1.334,2.38-2.325,2.646-3.26h-7.691
		c-0.41,0.849-1.478,2.146-2.733,3.26c-1.722,1.527-2.917,3.35-2.917,4.447c0,1.099,1.195,2.921,2.917,4.446
		c1.605,1.422,2.917,3.156,2.917,3.854c0,0.151-0.072,0.358-0.184,0.593H534.229L534.229,416.714 M534.229,433.313
		c0.378-1.332-0.498-2.543-2.646-4.446c-3.744-3.317-3.744-5.575,0-8.893c1.505-1.335,2.38-2.327,2.646-3.261h-7.691
		c-0.41,0.849-1.478,2.146-2.733,3.261c-1.722,1.525-2.917,3.348-2.917,4.445c0,1.099,1.195,2.921,2.917,4.447
		c1.605,1.421,2.917,3.155,2.917,3.853c0,0.152-0.072,0.358-0.184,0.594H534.229L534.229,433.313 M534.229,449.912
		c0.378-1.331-0.498-2.543-2.646-4.446c-3.744-3.317-3.744-5.575,0-8.893c1.505-1.334,2.38-2.326,2.646-3.26h-7.691
		c-0.41,0.849-1.478,2.146-2.733,3.26c-1.722,1.526-2.917,3.349-2.917,4.446s1.195,2.921,2.917,4.446
		c1.605,1.422,2.917,3.155,2.917,3.854c0,0.151-0.072,0.358-0.184,0.593H534.229L534.229,449.912 M531.87,465.372
		c0.946-1.221,0.382-2.162-1.2-4.264c-2.756-3.661-2.83-4.619,0.914-7.936c1.505-1.334,2.38-2.327,2.646-3.261h-7.691
		c-0.41,0.85-1.478,2.146-2.733,3.261c-1.722,1.525-2.931,2.468-3.063,3.562c-0.133,1.096,1,1.873,2.267,3.556
		c1.182,1.57,2.195,2.61,1.89,3.282c-0.067,0.146-0.227,0.333-0.438,0.54L531.87,465.372L531.87,465.372 M521.129,479.13
		c1.556-0.96,1.707-1.906,1.364-4.208c-0.598-4.015,0.134-4.688,5.393-7.117c2.116-0.977,3.321-1.576,3.984-2.433l-7.411-1.26
		c-0.764,0.751-2.192,1.383-3.957,2.197c-2.417,1.117-4.076,1.481-4.803,2.484c-0.728,1.004-0.256,1.945,0.019,3.79
		c0.257,1.722,0.463,2.86-0.189,3.434c-0.142,0.123-0.395,0.268-0.706,0.42L521.129,479.13L521.129,479.13 M503.163,489.446
		c2.03-0.532,2.694-1.416,3.783-3.631c1.9-3.86,2.857-4.416,9.222-5.459c2.561-0.42,3.872-0.553,4.961-1.227l-6.307-2.692
		c-1.128,0.555-2.442,0.484-4.578,0.837c-2.928,0.479-4.623,0.493-5.912,1.258c-1.288,0.765-1.367,1.792-2.24,3.566
		c-0.814,1.654-1.259,2.797-2.214,3.178c-0.207,0.083-0.53,0.158-0.913,0.228L503.163,489.446L503.163,489.446 M480.28,495.018
		c2.208-0.028,3.4-0.75,5.797-2.538c4.176-3.118,5.254-3.499,11.791-2.998c2.63,0.202,3.87,0.339,5.295-0.036l-4.198-3.942
		c-1.385,0.255-2.49-0.074-4.685-0.243c-3.007-0.23-4.49-0.575-6.157-0.168c-1.669,0.407-2.276,1.381-4.195,2.815
		c-1.79,1.335-3.006,2.357-4.126,2.488c-0.242,0.029-0.589,0.025-0.987,0l1.466,4.62l0,0 M454.386,495.725
		c2.179,0.23,4.157-0.304,7.269-1.618c5.424-2.291,7.697-2.146,13.514-0.252c2.343,0.761,3.563,1.18,5.112,1.161l-1.466-4.62
		c-1.438-0.083-2.587-0.634-4.539-1.27c-2.675-0.869-3.805-1.583-5.6-1.568c-1.797,0.015-4.527,0.737-7.021,1.79
		c-2.323,0.982-5.158,1.785-6.299,1.785c-0.248,0-0.585-0.045-0.97-0.113V495.725L454.386,495.725 M427.25,495.725
		c2.176,0.23,4.155-0.304,7.27-1.618c5.422-2.291,9.114-2.291,14.536,0c2.183,0.921,3.805,1.456,5.33,1.618v-4.705
		c-1.387-0.249-3.509-0.902-5.33-1.672c-2.493-1.053-5.473-1.784-7.269-1.784s-4.775,0.731-7.268,1.784
		c-2.325,0.982-5.161,1.785-6.301,1.785c-0.247,0-0.586-0.045-0.969-0.113V495.725L427.25,495.725 M400.113,495.725
		c2.177,0.23,4.157-0.304,7.269-1.618c5.424-2.291,9.113-2.291,14.537,0c2.181,0.921,3.804,1.456,5.331,1.618v-4.705
		c-1.389-0.249-3.511-0.902-5.331-1.672c-2.494-1.053-5.473-1.784-7.269-1.784s-4.774,0.731-7.269,1.784
		c-2.324,0.982-5.16,1.785-6.3,1.785c-0.247,0-0.586-0.045-0.969-0.113V495.725L400.113,495.725 M372.977,495.725
		c2.177,0.23,4.156-0.304,7.269-1.618c5.422-2.291,9.114-2.291,14.536,0c2.183,0.921,3.806,1.456,5.332,1.618v-4.705
		c-1.388-0.249-3.511-0.902-5.332-1.672c-2.492-1.053-5.473-1.784-7.268-1.784s-4.775,0.731-7.269,1.784
		c-2.325,0.982-5.159,1.785-6.3,1.785c-0.247,0-0.585-0.045-0.969-0.113V495.725L372.977,495.725 M345.84,495.725
		c2.177,0.23,4.157-0.304,7.269-1.618c5.423-2.291,9.113-2.291,14.537,0c2.182,0.921,3.804,1.456,5.331,1.618v-4.705
		c-1.388-0.249-3.511-0.902-5.331-1.672c-2.493-1.053-5.472-1.784-7.27-1.784c-1.796,0-4.773,0.731-7.268,1.784
		c-2.324,0.982-5.159,1.785-6.299,1.785c-0.248,0-0.587-0.045-0.97-0.113V495.725L345.84,495.725 M318.703,495.725
		c2.176,0.23,4.156-0.304,7.269-1.618c5.423-2.291,9.115-2.291,14.537,0c2.183,0.921,3.804,1.456,5.331,1.618v-4.705
		c-1.388-0.249-3.51-0.902-5.331-1.672c-2.493-1.053-5.474-1.784-7.269-1.784c-1.796,0-4.774,0.731-7.269,1.784
		c-2.325,0.982-5.159,1.785-6.301,1.785c-0.246,0-0.584-0.045-0.968-0.113V495.725L318.703,495.725 M291.565,495.725
		c2.177,0.23,4.158-0.304,7.269-1.618c5.424-2.291,9.114-2.291,14.539,0c2.181,0.921,3.802,1.456,5.33,1.618v-4.705
		c-1.388-0.249-3.511-0.902-5.33-1.672c-2.495-1.053-5.473-1.784-7.27-1.784c-1.796,0-4.775,0.731-7.27,1.784
		c-2.323,0.982-5.158,1.785-6.299,1.785c-0.248,0-0.585-0.045-0.97-0.113V495.725L291.565,495.725 M264.429,495.725
		c2.176,0.23,4.157-0.304,7.269-1.618c5.423-2.291,9.114-2.291,14.537,0c2.182,0.921,3.804,1.456,5.33,1.618v-4.705
		c-1.387-0.249-3.509-0.902-5.33-1.672c-2.493-1.053-5.473-1.784-7.27-1.784c-1.796,0-4.774,0.731-7.268,1.784
		c-2.324,0.982-5.16,1.785-6.3,1.785c-0.248,0-0.586-0.045-0.969-0.113V495.725L264.429,495.725 M237.292,495.725
		c2.177,0.23,4.158-0.304,7.27-1.618c5.422-2.291,9.114-2.291,14.537,0c2.182,0.921,3.804,1.456,5.331,1.618v-4.705
		c-1.388-0.249-3.51-0.902-5.331-1.672c-2.495-1.053-5.474-1.784-7.269-1.784c-1.796,0-4.774,0.731-7.268,1.784
		c-2.325,0.982-5.16,1.785-6.3,1.785c-0.247,0-0.585-0.045-0.969-0.113V495.725L237.292,495.725 M210.155,495.725
		c2.177,0.23,4.157-0.304,7.269-1.618c5.423-2.291,9.115-2.291,14.538,0c2.182,0.921,3.803,1.456,5.33,1.618v-4.705
		c-1.387-0.249-3.509-0.902-5.33-1.672c-2.494-1.053-5.474-1.784-7.268-1.784c-1.796,0-4.775,0.731-7.27,1.784
		c-2.324,0.982-5.158,1.785-6.3,1.785c-0.246,0-0.584-0.045-0.969-0.113V495.725L210.155,495.725 M183.018,495.725
		c2.177,0.23,4.157-0.304,7.269-1.618c5.424-2.291,9.115-2.291,14.539,0c2.181,0.921,3.804,1.456,5.33,1.618v-4.705
		c-1.387-0.249-3.509-0.902-5.33-1.672c-2.494-1.053-5.473-1.784-7.269-1.784s-4.775,0.731-7.27,1.784
		c-2.323,0.982-5.158,1.785-6.298,1.785c-0.249,0-0.586-0.045-0.97-0.113V495.725L183.018,495.725 M155.881,495.725
		c2.177,0.23,4.158-0.304,7.269-1.618c5.423-2.291,9.115-2.291,14.538,0c2.182,0.921,3.805,1.456,5.33,1.618v-4.705
		c-1.387-0.249-3.509-0.902-5.33-1.672c-2.494-1.053-5.473-1.784-7.27-1.784c-1.795,0-4.774,0.731-7.268,1.784
		c-2.324,0.982-5.16,1.785-6.3,1.785c-0.246,0-0.586-0.045-0.969-0.113V495.725L155.881,495.725 M128.745,495.725
		c2.177,0.23,4.157-0.304,7.269-1.618c5.423-2.291,9.115-2.291,14.537,0c2.183,0.921,3.804,1.456,5.331,1.618v-4.705
		c-1.388-0.249-3.51-0.902-5.331-1.672c-2.494-1.053-5.473-1.784-7.269-1.784c-1.795,0-4.774,0.731-7.269,1.784
		c-2.325,0.982-5.16,1.785-6.3,1.785c-0.246,0-0.585-0.045-0.969-0.113V495.725L128.745,495.725 M101.608,495.725
		c2.177,0.23,4.158-0.304,7.269-1.618c5.424-2.291,9.115-2.291,14.538,0c2.182,0.921,3.803,1.456,5.33,1.618v-4.705
		c-1.387-0.249-3.51-0.902-5.33-1.672c-2.494-1.053-5.473-1.784-7.269-1.784c-1.796,0-4.775,0.731-7.27,1.784
		c-2.324,0.982-5.158,1.785-6.299,1.785c-0.247,0-0.585-0.045-0.969-0.113V495.725L101.608,495.725 M76.044,494.479
		c2.034,0.527,3.579,0.244,6.961-0.79c5.895-1.803,7.85-1.873,13.273,0.418c2.182,0.921,3.804,1.456,5.33,1.618v-4.705
		c-1.387-0.249-3.509-0.902-5.33-1.672c-2.494-1.053-4.727-1.78-6.521-1.823c-1.794-0.042-2.95,0.624-5.661,1.453
		c-2.526,0.771-4.288,1.323-5.399,1.164c-0.241-0.033-0.554-0.124-0.901-0.245L76.044,494.479L76.044,494.479 M53.819,488.08
		c1.543,0.966,3.152,1.003,6.922,0.829c6.57-0.306,7.728-0.021,11.643,3.221c1.575,1.305,2.234,1.979,3.66,2.35l1.751-4.582
		c-1.258-0.436-1.572-1.18-2.887-2.268c-1.8-1.491-2.384-2.415-4.016-2.874c-1.632-0.457-3.207-0.097-6.229,0.044
		c-2.815,0.131-4.737,0.313-5.662-0.094c-0.2-0.089-0.432-0.247-0.677-0.439L53.819,488.08L53.819,488.08 M36.889,477.125
		c0.839,1.249,2.384,1.63,5.985,2.334c6.276,1.228,7.356,1.719,8.95,5.63c0.642,1.574,0.913,2.314,1.996,2.992l4.505-3.813
		c-0.885-0.7-0.824-1.435-1.359-2.748c-0.733-1.799-0.813-2.779-2.04-3.582c-1.228-0.8-3.008-0.819-5.894-1.385
		c-2.689-0.526-4.666-0.778-5.273-1.37c-0.132-0.128-0.25-0.327-0.359-0.563L36.889,477.125L36.889,477.125 M27.466,463.015
		c0.111,1.35,1.157,2.048,4.174,3.442c5.258,2.429,5.581,3.212,4.982,7.226c-0.241,1.614-0.322,2.566,0.267,3.442l6.512-2.505
		c-0.393-0.851-0.204-1.926-0.003-3.273c0.275-1.847,0.946-2.848,0.22-3.853c-0.728-1.004-2.175-1.417-4.593-2.533
		c-2.254-1.041-3.771-1.697-4.023-2.378c-0.054-0.147-0.058-0.36-0.032-0.604L27.466,463.015L27.466,463.015 M26.028,447.305
		c-0.377,1.332,0.498,2.543,2.646,4.446c3.743,3.317,3.677,4.641,0.63,8.214c-1.225,1.438-1.915,2.104-1.837,3.05l7.503-1.035
		c0.092-0.884,1.03-1.401,2.053-2.601c1.401-1.645,2.456-2.378,2.412-3.476c-0.044-1.098-1.26-2.626-2.981-4.152
		c-1.604-1.421-2.917-3.155-2.917-3.853c0-0.152,0.073-0.358,0.185-0.594H26.028L26.028,447.305 M26.028,430.706
		c-0.377,1.331,0.498,2.543,2.646,4.446c3.743,3.317,3.743,5.576,0,8.893c-1.506,1.335-2.38,2.326-2.646,3.26h7.692
		c0.408-0.849,1.476-2.146,2.732-3.26c1.721-1.525,2.917-3.349,2.917-4.446c0-1.099-1.195-2.92-2.917-4.446
		c-1.604-1.422-2.917-3.155-2.917-3.854c0-0.152,0.073-0.358,0.185-0.593H26.028L26.028,430.706 M26.028,414.106
		c-0.377,1.331,0.498,2.543,2.646,4.446c3.743,3.318,3.743,5.577,0,8.893c-1.506,1.335-2.38,2.327-2.646,3.261h7.692
		c0.408-0.848,1.476-2.146,2.732-3.261c1.721-1.524,2.917-3.348,2.917-4.445c0-1.099-1.195-2.922-2.917-4.447
		c-1.604-1.422-2.917-3.155-2.917-3.853c0-0.15,0.073-0.358,0.185-0.594H26.028L26.028,414.106 M26.028,397.507
		c-0.377,1.332,0.497,2.543,2.646,4.446c3.743,3.317,3.743,5.576,0,8.894c-1.506,1.334-2.38,2.325-2.646,3.26h7.692
		c0.408-0.848,1.476-2.146,2.732-3.26c1.721-1.525,2.917-3.349,2.917-4.446c0-1.099-1.196-2.921-2.917-4.447
		c-1.604-1.421-2.917-3.154-2.917-3.853c0-0.151,0.073-0.358,0.185-0.594H26.028L26.028,397.507 M26.028,380.908
		c-0.377,1.332,0.497,2.543,2.646,4.446c3.743,3.317,3.743,5.576,0,8.893c-1.506,1.334-2.38,2.326-2.646,3.26h7.692
		c0.408-0.848,1.476-2.146,2.732-3.26c1.721-1.525,2.917-3.348,2.917-4.445c0-1.1-1.196-2.921-2.917-4.447
		c-1.604-1.422-2.917-3.155-2.917-3.854c0-0.15,0.073-0.358,0.185-0.593H26.028L26.028,380.908 M26.028,364.309
		c-0.377,1.332,0.497,2.543,2.646,4.445c3.743,3.318,3.743,5.576,0,8.893c-1.506,1.335-2.38,2.327-2.646,3.261h7.692
		c0.408-0.848,1.476-2.146,2.732-3.261c1.721-1.525,2.917-3.349,2.917-4.445c0-1.099-1.196-2.921-2.917-4.447
		c-1.604-1.421-2.917-3.155-2.917-3.853c0-0.151,0.073-0.358,0.185-0.593H26.028L26.028,364.309 M26.028,347.71
		c-0.377,1.332,0.497,2.543,2.646,4.446c3.743,3.317,3.743,5.575,0,8.893c-1.506,1.334-2.38,2.326-2.646,3.261h7.692
		c0.408-0.849,1.476-2.147,2.732-3.261c1.721-1.525,2.917-3.348,2.917-4.446s-1.196-2.921-2.917-4.446
		c-1.604-1.422-2.917-3.155-2.917-3.854c0-0.15,0.073-0.358,0.185-0.593H26.028L26.028,347.71 M26.028,331.11
		c-0.377,1.333,0.497,2.543,2.646,4.447c3.743,3.316,3.743,5.574,0,8.892c-1.506,1.335-2.38,2.328-2.646,3.261h7.692
		c0.408-0.848,1.476-2.147,2.732-3.261c1.721-1.524,2.917-3.348,2.917-4.446s-1.196-2.921-2.917-4.445
		c-1.604-1.422-2.917-3.157-2.917-3.854c0-0.151,0.073-0.358,0.185-0.593H26.028L26.028,331.11 M26.028,314.512
		c-0.377,1.331,0.497,2.542,2.646,4.446c3.743,3.317,3.743,5.574,0,8.892c-1.506,1.337-2.38,2.328-2.646,3.261h7.692
		c0.408-0.849,1.476-2.146,2.732-3.261c1.721-1.525,2.917-3.347,2.917-4.445c0-1.098-1.196-2.921-2.917-4.446
		c-1.604-1.421-2.917-3.156-2.917-3.854c0-0.15,0.073-0.357,0.185-0.593H26.028L26.028,314.512 M26.028,297.912
		c-0.377,1.332,0.497,2.544,2.646,4.447c3.743,3.316,3.743,5.574,0,8.893c-1.506,1.334-2.38,2.326-2.646,3.26h7.692
		c0.408-0.849,1.476-2.147,2.732-3.26c1.721-1.525,2.917-3.349,2.917-4.447c0-1.098-1.196-2.921-2.917-4.445
		c-1.604-1.422-2.917-3.157-2.917-3.854c0-0.151,0.073-0.358,0.185-0.594H26.028L26.028,297.912 M26.028,281.313
		c-0.377,1.333,0.497,2.543,2.646,4.446c3.743,3.317,3.743,5.575,0,8.893c-1.506,1.334-2.38,2.327-2.646,3.26h7.692
		c0.408-0.849,1.476-2.147,2.732-3.26c1.721-1.526,2.917-3.348,2.917-4.447c0-1.098-1.196-2.92-2.917-4.446
		c-1.604-1.421-2.917-3.156-2.917-3.854c0-0.15,0.073-0.358,0.185-0.593H26.028L26.028,281.313 M26.028,264.713
		c-0.377,1.332,0.497,2.543,2.646,4.447c3.743,3.317,3.743,5.575,0,8.893c-1.506,1.335-2.38,2.327-2.646,3.26h7.692
		c0.408-0.848,1.476-2.147,2.732-3.26c1.721-1.526,2.917-3.348,2.917-4.447c0-1.097-1.196-2.92-2.917-4.446
		c-1.604-1.421-2.917-3.156-2.917-3.854c0-0.151,0.073-0.357,0.185-0.593H26.028L26.028,264.713 M26.028,248.114
		c-0.377,1.333,0.497,2.544,2.646,4.446c3.743,3.316,3.743,5.575,0,8.894c-1.506,1.334-2.38,2.327-2.646,3.259h7.692
		c0.408-0.848,1.476-2.147,2.732-3.259c1.721-1.527,2.917-3.349,2.917-4.448c0-1.098-1.196-2.92-2.917-4.446
		c-1.604-1.422-2.917-3.156-2.917-3.854c0-0.15,0.073-0.357,0.185-0.593H26.028L26.028,248.114 M26.028,231.515
		c-0.377,1.333,0.497,2.543,2.646,4.447c3.743,3.317,3.743,5.576,0,8.892c-1.506,1.335-2.38,2.328-2.646,3.261h7.692
		c0.408-0.849,1.476-2.147,2.732-3.261c1.721-1.525,2.917-3.348,2.917-4.446c0-1.098-1.196-2.92-2.917-4.446
		c-1.604-1.421-2.917-3.156-2.917-3.854c0-0.151,0.073-0.357,0.185-0.593H26.028L26.028,231.515 M26.028,214.915
		c-0.377,1.333,0.497,2.543,2.646,4.447c3.743,3.316,3.743,5.575,0,8.893c-1.506,1.334-2.38,2.327-2.646,3.259h7.692
		c0.408-0.848,1.476-2.146,2.732-3.259c1.721-1.526,2.917-3.349,2.917-4.448c0-1.098-1.196-2.92-2.917-4.445
		c-1.604-1.422-2.917-3.156-2.917-3.854c0-0.151,0.073-0.357,0.185-0.593H26.028L26.028,214.915 M26.028,198.316
		c-0.377,1.333,0.497,2.544,2.646,4.447c3.743,3.317,3.743,5.576,0,8.893c-1.506,1.334-2.38,2.326-2.646,3.26h7.692
		c0.408-0.849,1.476-2.146,2.732-3.26c1.721-1.526,2.917-3.348,2.917-4.447c0-1.098-1.196-2.921-2.917-4.446
		c-1.604-1.421-2.917-3.156-2.917-3.854c0-0.151,0.073-0.357,0.185-0.593H26.028L26.028,198.316 M26.028,181.717
		c-0.377,1.332,0.497,2.543,2.646,4.447c3.743,3.317,3.743,5.575,0,8.893c-1.506,1.334-2.38,2.326-2.646,3.259h7.692
		c0.408-0.848,1.476-2.146,2.732-3.259c1.721-1.526,2.917-3.348,2.917-4.446c0-1.099-1.196-2.921-2.917-4.446
		c-1.604-1.422-2.917-3.156-2.917-3.854c0-0.151,0.073-0.358,0.185-0.593H26.028L26.028,181.717 M26.028,165.119
		c-0.377,1.332,0.497,2.542,2.646,4.446c3.743,3.317,3.743,5.575,0,8.893c-1.506,1.334-2.38,2.327-2.646,3.26h7.692
		c0.408-0.849,1.476-2.146,2.732-3.26c1.721-1.526,2.917-3.348,2.917-4.447s-1.196-2.92-2.917-4.446
		c-1.604-1.421-2.917-3.155-2.917-3.854c0-0.151,0.073-0.357,0.185-0.592H26.028L26.028,165.119 M26.028,148.519
		c-0.377,1.332,0.497,2.543,2.646,4.446c3.743,3.317,3.743,5.576,0,8.893c-1.506,1.334-2.38,2.327-2.646,3.261h7.692
		c0.408-0.849,1.476-2.147,2.732-3.261c1.721-1.525,2.917-3.348,2.917-4.446c0-1.099-1.196-2.921-2.917-4.447
		c-1.604-1.422-2.917-3.156-2.917-3.854c0-0.151,0.073-0.358,0.185-0.593H26.028L26.028,148.519 M26.028,131.92
		c-0.377,1.332,0.497,2.543,2.646,4.446c3.743,3.317,3.743,5.575,0,8.892c-1.506,1.335-2.38,2.327-2.646,3.261h7.692
		c0.408-0.849,1.476-2.146,2.732-3.261c1.721-1.525,2.917-3.347,2.917-4.446s-1.196-2.921-2.917-4.446
		c-1.604-1.422-2.917-3.156-2.917-3.854c0-0.151,0.073-0.358,0.185-0.593H26.028L26.028,131.92 M26.284,115.602
		c-0.537,1.311,0.241,2.261,2.389,4.165c3.743,3.317,3.743,5.575,0,8.892c-1.506,1.335-2.38,2.327-2.646,3.261h7.692
		c0.408-0.849,1.476-2.147,2.732-3.261c1.721-1.525,2.917-3.347,2.917-4.446s-1.196-2.921-2.917-4.446
		c-1.604-1.422-2.838-2.538-2.754-3.233c0.019-0.151,0.116-0.354,0.257-0.583L26.284,115.602L26.284,115.602 M32.641,101.06
		c-1.313,1.086-0.982,2.104-0.1,4.352c1.54,3.919,1.499,4.723-3.121,7.597c-1.858,1.156-2.759,1.675-3.136,2.594l7.671,0.348
		c0.509-0.828,1.577-1.16,3.127-2.125c2.124-1.321,3.417-1.852,3.898-2.91c0.48-1.058-0.475-1.988-1.183-3.79
		c-0.659-1.68-1.036-3.193-0.574-3.832c0.1-0.138,0.019,0.055,0.292-0.124L32.641,101.06L32.641,101.06 M47.331,88.731
		c-1.825,0.762-2.235,1.693-2.615,3.994c-0.662,4.01-1.505,4.638-7.429,6.404c-2.383,0.71-3.725,1.17-4.646,1.932l6.875,2.11
		c0.987-0.646,2.559-1.113,4.548-1.706c2.724-0.812,4.422-1.005,5.449-1.907c1.027-0.9,0.824-1.906,1.128-3.75
		c0.283-1.719,0.403-2.883,1.221-3.369c0.178-0.105,0.471-0.217,0.826-0.332L47.331,88.731L47.331,88.731 M68.081,80.643
		c-2.161,0.28-3.063,1.09-4.833,3.133c-3.084,3.562-4.122,4.028-10.695,4.31c-2.645,0.114-3.942,0.11-5.222,0.644l5.356,3.376
		c1.279-0.412,2.514-0.209,4.72-0.304c3.023-0.129,4.65,0.042,6.155-0.557c1.504-0.6,1.854-1.61,3.273-3.249
		c1.322-1.526,2.074-2.612,3.132-2.871c0.229-0.056,0.57-0.092,0.969-0.115L68.081,80.643L68.081,80.643 M92.38,77.805
		c-2.181-0.214-3.645,0.341-6.551,1.82c-5.066,2.577-6.335,2.875-12.581,1.592c-2.512-0.516-3.65-0.77-5.167-0.573l2.856,4.368
		c1.44-0.083,2.365,0.347,4.462,0.777c2.872,0.59,4.404,1.059,6.167,0.85c1.763-0.209,2.629-1.09,4.958-2.275
		c2.171-1.104,3.842-1.951,4.983-1.959c0.247-0.002,0.586,0.04,0.971,0.106L92.38,77.805L92.38,77.805"/>
</g>
</svg>
